<?xml version="1.0" standalone="no"?>
<!DOCTYPE svg PUBLIC "-//W3C//DTD SVG 20010904//EN"
 "http://www.w3.org/TR/2001/REC-SVG-20010904/DTD/svg10.dtd">
<svg version="1.0" xmlns="http://www.w3.org/2000/svg"
 width="4500.000000pt" height="4500.000000pt" viewBox="0 0 4500.000000 4500.000000"
 preserveAspectRatio="xMidYMid meet">
<metadata>
Created by potrace 1.14, written by Peter Selinger 2001-2017
</metadata>
<g transform="translate(0.000000,4500.000000) scale(0.100000,-0.100000)"
fill="#000000" stroke="none">
<path d="M6997 44774 c-1 -1 -126 -5 -277 -8 -335 -8 -563 -17 -775 -31 -33
-2 -105 -6 -160 -10 -55 -3 -120 -8 -145 -10 -25 -2 -83 -6 -130 -10 -47 -3
-105 -8 -130 -10 -53 -5 -169 -15 -225 -20 -142 -12 -183 -16 -205 -20 -14 -2
-54 -7 -90 -10 -36 -4 -78 -8 -95 -10 -40 -4 -153 -17 -185 -20 -23 -3 -82
-10 -155 -20 -16 -2 -52 -7 -80 -10 -27 -4 -61 -8 -75 -10 -14 -2 -52 -7 -85
-11 -33 -5 -63 -9 -67 -10 -5 -1 -20 -2 -35 -3 -59 -2 -4 -20 82 -26 50 -3 97
-7 105 -9 8 -3 47 -7 85 -11 39 -3 84 -8 100 -10 41 -5 110 -14 170 -20 28 -3
64 -7 80 -9 17 -3 57 -8 90 -12 33 -3 68 -8 79 -10 10 -2 44 -6 75 -10 31 -3
65 -8 76 -10 11 -2 45 -7 75 -10 30 -3 62 -7 70 -9 8 -2 35 -7 60 -10 25 -3
88 -13 140 -21 52 -8 112 -17 135 -20 22 -2 51 -7 65 -9 14 -2 108 -18 211
-35 102 -17 196 -33 210 -35 13 -3 38 -7 54 -9 30 -5 69 -12 115 -21 31 -6
123 -22 170 -30 19 -3 42 -8 50 -10 8 -3 62 -14 120 -25 58 -10 182 -35 275
-55 94 -19 179 -37 190 -39 11 -2 43 -10 70 -16 28 -6 61 -14 75 -16 14 -3 61
-14 105 -24 44 -10 96 -22 115 -26 19 -4 40 -9 45 -10 52 -11 466 -116 600
-151 94 -25 177 -46 185 -48 135 -28 1288 -384 1342 -415 10 -6 23 -10 28 -10
10 0 324 -111 510 -181 41 -15 102 -38 135 -50 78 -28 598 -236 650 -259 22
-10 119 -52 215 -93 225 -97 445 -196 675 -305 220 -104 630 -313 605 -308
-14 2 -70 19 -125 36 -55 17 -107 33 -115 35 -8 2 -76 20 -150 39 -328 86
-773 176 -1097 221 -59 8 -117 17 -133 20 -8 2 -40 6 -71 9 -31 4 -65 8 -75
10 -11 2 -53 7 -94 11 -41 4 -82 8 -90 10 -8 2 -49 6 -90 10 -41 3 -86 8 -100
10 -14 2 -63 7 -110 10 -47 3 -112 8 -145 11 -61 5 -101 8 -305 18 -499 26
-1049 23 -1515 -9 -38 -3 -106 -7 -150 -10 -83 -5 -194 -14 -255 -20 -19 -2
-64 -6 -100 -10 -36 -3 -83 -8 -105 -11 -94 -11 -113 -13 -165 -19 -30 -3 -66
-7 -80 -10 -14 -3 -47 -7 -75 -9 -27 -3 -111 -14 -185 -26 -74 -11 -157 -23
-185 -26 -27 -3 -53 -8 -56 -10 -4 -2 -27 -6 -50 -9 -24 -3 -82 -13 -129 -21
-46 -9 -96 -17 -110 -19 -14 -2 -92 -17 -175 -34 -82 -16 -162 -32 -178 -35
-15 -3 -35 -7 -45 -10 -9 -3 -28 -7 -42 -10 -209 -35 -834 -199 -1235 -322
-492 -152 -1167 -400 -1512 -555 -23 -10 -44 -19 -47 -19 -3 0 -33 -13 -68
-29 -35 -16 -110 -50 -168 -76 -242 -108 -786 -375 -995 -489 -55 -30 -122
-66 -150 -80 -27 -14 -68 -37 -90 -49 -22 -13 -67 -39 -100 -57 -144 -79 -592
-345 -730 -434 -27 -18 -81 -52 -120 -77 -98 -62 -494 -326 -590 -393 -44 -31
-97 -68 -117 -81 -41 -27 -49 -40 -20 -31 9 3 40 8 67 12 28 3 53 8 56 10 3 1
28 6 56 9 27 3 59 7 71 10 11 2 52 7 89 10 37 4 75 8 83 10 8 2 42 7 75 10 33
3 76 8 95 11 19 2 64 6 100 9 36 3 90 7 120 10 30 3 87 7 125 10 39 3 100 7
136 10 144 11 373 22 674 32 289 10 1515 10 1865 -1 309 -9 333 -10 835 -31
198 -8 476 -22 585 -30 36 -3 115 -7 175 -10 61 -3 137 -8 170 -10 33 -3 96
-7 140 -10 44 -3 107 -7 140 -10 33 -3 96 -7 140 -10 44 -3 105 -7 135 -10 30
-3 89 -7 130 -10 122 -9 182 -14 240 -19 30 -3 91 -8 135 -11 44 -3 98 -8 120
-10 87 -9 153 -15 220 -20 39 -3 86 -7 105 -10 19 -2 69 -7 110 -10 41 -3 91
-8 110 -10 19 -3 62 -7 95 -10 33 -3 80 -7 105 -10 47 -5 103 -11 205 -20 33
-3 67 -8 75 -10 8 -2 53 -7 99 -10 47 -4 92 -8 101 -10 14 -3 86 -11 185 -20
17 -2 57 -6 90 -9 33 -4 71 -8 85 -11 14 -2 50 -7 80 -10 30 -3 71 -8 90 -10
19 -3 56 -7 82 -10 26 -3 62 -7 80 -9 18 -3 56 -8 83 -11 28 -3 64 -8 80 -10
17 -2 51 -7 78 -10 111 -12 143 -17 157 -20 8 -2 47 -7 85 -11 68 -6 125 -23
81 -24 -43 0 -668 -196 -881 -275 -49 -18 -133 -49 -186 -69 -434 -158 -947
-384 -1424 -627 -148 -75 -299 -153 -335 -173 -36 -20 -72 -39 -80 -43 -80
-38 -599 -342 -875 -513 -218 -135 -594 -386 -839 -560 -65 -47 -136 -97 -158
-113 -21 -15 -78 -56 -126 -92 -48 -36 -98 -73 -111 -82 -13 -10 -86 -65 -161
-123 -75 -58 -155 -118 -176 -135 -144 -111 -521 -416 -644 -522 -14 -11 -61
-51 -105 -88 -183 -154 -552 -483 -731 -650 -6 -5 -62 -57 -124 -115 -223
-207 -790 -761 -790 -772 0 -3 96 27 214 67 118 40 231 77 252 82 22 6 118 34
214 61 163 47 423 116 550 146 268 63 409 96 430 100 14 2 65 14 114 26 50 11
106 23 125 26 20 3 39 8 42 10 4 2 24 6 45 9 22 4 47 8 56 11 19 6 0 2 263 53
116 23 224 44 240 46 17 3 41 8 55 10 14 3 36 7 50 10 14 3 50 10 80 16 30 5
64 12 75 13 68 11 383 68 395 71 8 2 38 7 65 11 28 3 59 8 70 10 41 8 71 13
110 18 22 3 51 8 65 11 14 3 39 7 55 9 17 3 44 7 60 10 17 2 50 8 75 11 25 4
53 9 64 11 10 2 37 6 60 8 22 3 51 8 62 10 31 6 81 14 139 21 28 4 57 8 65 10
8 2 35 7 60 10 25 3 56 8 70 10 14 2 45 7 70 10 25 3 56 8 70 10 23 4 276 39
365 51 22 3 51 7 65 9 49 8 106 15 145 20 22 2 56 7 75 9 19 3 55 8 80 11 68
8 132 16 160 20 55 8 188 25 245 31 33 3 68 8 77 9 9 2 48 7 85 10 37 4 75 8
83 10 8 2 47 7 85 11 39 3 77 7 85 9 8 2 49 6 90 10 41 4 82 8 90 10 8 2 49 6
90 10 41 4 82 9 91 10 9 2 52 6 95 10 43 4 87 9 96 10 9 2 52 6 95 10 43 3 85
8 93 10 8 2 53 7 100 10 47 4 99 8 115 11 26 3 24 1 -15 -18 -92 -44 -585
-290 -595 -297 -5 -5 -62 -35 -125 -68 -99 -53 -343 -190 -530 -298 -272 -157
-1073 -674 -1110 -716 -3 -3 -27 -21 -55 -39 -174 -118 -677 -495 -890 -669
-11 -9 -68 -54 -125 -101 -146 -118 -490 -407 -564 -475 -11 -10 -155 -138
-230 -205 -22 -19 -67 -60 -100 -91 -34 -31 -74 -69 -91 -84 -164 -149 -325
-305 -635 -615 -380 -380 -507 -512 -771 -801 -13 -15 -60 -66 -104 -114 -44
-49 -85 -93 -90 -99 -6 -6 -73 -83 -150 -171 -77 -88 -144 -165 -150 -171 -26
-30 -107 -124 -144 -169 -23 -27 -50 -59 -60 -70 -131 -149 -666 -813 -841
-1045 -52 -69 -98 -127 -101 -130 -5 -4 -362 -482 -415 -555 -8 -11 -63 -87
-123 -170 -60 -82 -107 -152 -105 -154 1 -2 18 6 36 17 92 54 536 281 693 352
39 18 97 45 130 60 133 62 371 166 565 246 113 47 219 92 235 99 17 7 100 41
185 74 85 34 164 66 175 70 11 5 67 27 125 49 327 124 485 183 565 212 50 18
99 36 110 41 18 8 176 65 200 73 6 2 17 6 25 9 257 100 2055 691 2260 742 8 2
58 17 110 34 87 28 485 147 520 156 8 2 98 28 200 58 217 64 468 136 491 142
20 4 153 42 194 54 17 5 75 22 130 36 55 15 145 40 200 56 120 33 872 236 945
254 129 31 312 78 335 86 32 10 453 115 520 130 22 5 56 13 75 19 29 8 328 82
393 96 44 10 56 13 117 29 36 9 76 19 89 22 14 2 99 22 190 44 91 23 177 43
190 45 13 3 51 11 84 19 32 7 57 12 56 10 -2 -2 -101 -68 -219 -147 -369 -246
-691 -483 -1065 -782 -180 -144 -525 -432 -550 -460 -6 -6 -44 -40 -85 -76
-41 -35 -97 -85 -125 -111 -27 -26 -63 -59 -80 -73 -251 -225 -786 -760 -1080
-1081 -66 -71 -122 -132 -125 -135 -3 -3 -57 -63 -120 -135 -62 -71 -116 -132
-119 -135 -3 -3 -31 -34 -61 -70 -30 -36 -57 -67 -60 -70 -3 -3 -64 -75 -134
-160 -71 -85 -138 -166 -150 -180 -126 -147 -617 -784 -784 -1019 -9 -12 -31
-42 -48 -65 -139 -187 -694 -1006 -805 -1188 -15 -24 -71 -113 -124 -198 -97
-153 -344 -560 -421 -693 -21 -38 -43 -76 -49 -85 -19 -32 -103 -177 -125
-217 -71 -124 -257 -458 -283 -505 -85 -159 -112 -209 -137 -255 -15 -27 -53
-99 -85 -160 -32 -60 -81 -155 -110 -210 -46 -87 -234 -457 -243 -477 -7 -16
14 -7 38 15 14 12 56 45 93 72 38 28 74 55 80 60 79 71 682 479 957 649 85 52
160 99 165 103 21 17 268 163 275 163 5 0 10 3 12 8 2 4 104 66 228 139 124
72 241 140 260 151 19 12 46 27 60 35 83 46 133 74 192 108 36 22 71 39 77 39
6 0 11 5 11 10 0 6 4 10 9 10 7 0 72 34 201 107 19 11 76 41 125 68 50 26 95
51 100 55 6 4 48 27 95 52 254 135 419 222 535 283 72 37 168 88 215 113 116
62 1048 528 1295 647 348 168 368 177 473 227 56 26 150 71 210 99 59 28 195
91 302 141 107 49 201 95 209 101 8 7 17 11 20 11 9 -2 36 9 165 70 65 31 119
56 121 56 3 0 64 28 215 97 30 14 217 97 415 185 198 87 374 165 390 172 17 8
84 37 150 66 66 28 138 60 160 70 22 9 112 48 200 85 88 37 179 76 202 86 23
10 140 60 260 110 120 50 232 96 248 103 17 8 59 26 95 41 36 15 79 33 95 40
17 8 138 57 270 110 132 54 254 103 270 110 17 8 134 55 260 105 127 50 239
95 250 100 11 5 103 41 205 80 102 40 199 78 215 85 17 7 116 45 220 85 105
40 211 81 237 91 26 11 51 19 57 19 5 0 -18 -26 -52 -57 -152 -142 -479 -477
-632 -648 -50 -55 -92 -102 -95 -105 -18 -18 -159 -180 -221 -255 -305 -365
-588 -743 -850 -1135 -132 -199 -299 -458 -299 -465 0 -2 -13 -23 -29 -47 -16
-24 -38 -59 -48 -78 -11 -19 -58 -100 -105 -180 -46 -80 -104 -181 -128 -225
-24 -44 -52 -96 -63 -115 -47 -84 -85 -156 -170 -320 -49 -96 -95 -186 -103
-200 -16 -29 -160 -330 -194 -405 -12 -27 -38 -84 -57 -125 -19 -41 -46 -101
-59 -132 -13 -32 -35 -81 -48 -110 -13 -29 -36 -82 -51 -118 -15 -36 -33 -78
-40 -95 -27 -60 -155 -376 -155 -381 0 -3 -6 -20 -14 -37 -106 -237 -401
-1107 -572 -1687 -42 -140 -122 -425 -129 -456 -2 -10 -15 -62 -29 -114 -80
-307 -194 -772 -220 -902 -3 -16 -9 -40 -12 -55 -5 -26 -21 -96 -29 -133 -7
-29 -104 -506 -110 -540 -3 -19 -10 -53 -15 -75 -5 -22 -11 -56 -14 -75 -6
-37 -12 -66 -22 -113 -3 -16 -7 -38 -9 -50 -4 -35 -45 -261 -50 -277 -2 -8 -6
-37 -10 -65 -3 -27 -9 -60 -12 -72 -8 -35 1 -28 48 40 126 181 545 714 628
798 9 9 27 29 40 45 56 67 135 160 145 169 6 6 26 28 45 50 31 36 137 155 201
225 373 407 530 570 1035 1075 381 381 705 697 882 861 17 16 84 79 148 139
230 216 380 355 540 500 49 44 116 105 149 136 34 31 104 94 156 140 52 46
102 91 110 99 8 8 51 46 95 85 44 38 100 88 125 111 25 23 63 57 85 75 22 19
49 43 61 54 12 11 45 40 74 65 29 25 62 54 74 65 12 11 71 63 131 115 61 52
121 104 135 116 176 153 431 370 530 454 69 57 127 107 130 110 3 3 46 39 95
80 50 41 95 79 102 85 6 5 31 26 54 45 24 19 78 64 120 100 42 36 85 72 95 80
110 89 264 214 374 305 287 236 993 796 1305 1035 61 46 112 87 115 90 3 3 32
25 65 50 33 24 65 48 70 52 6 5 57 44 115 88 58 44 140 107 182 140 66 50 87
56 58 15 -4 -5 -38 -68 -75 -140 -37 -71 -72 -136 -78 -142 -5 -7 -7 -13 -3
-13 3 0 -8 -23 -24 -50 -17 -28 -30 -53 -30 -55 0 -2 -31 -68 -69 -147 -68
-142 -162 -350 -232 -513 -68 -160 -241 -613 -254 -665 -2 -8 -24 -71 -48
-140 -39 -113 -156 -489 -193 -625 -13 -46 -86 -323 -89 -335 -8 -35 -37 -156
-41 -170 -5 -19 -83 -368 -88 -397 -3 -13 -11 -58 -20 -100 -19 -98 -54 -287
-61 -330 -10 -61 -16 -98 -25 -153 -11 -67 -17 -102 -25 -155 -3 -23 -7 -50
-9 -61 -2 -12 -7 -45 -11 -75 -3 -30 -8 -65 -10 -79 -2 -14 -7 -45 -10 -70 -6
-48 -13 -104 -20 -160 -5 -36 -12 -101 -20 -180 -2 -25 -6 -61 -9 -80 -5 -36
-14 -123 -21 -220 -3 -30 -8 -84 -11 -120 -3 -36 -7 -90 -9 -120 -2 -30 -7
-93 -10 -140 -3 -47 -8 -125 -10 -175 -2 -49 -7 -135 -10 -190 -15 -270 -21
-1071 -11 -1385 9 -268 18 -478 21 -510 2 -19 6 -91 10 -160 4 -69 9 -141 10
-160 2 -19 7 -81 10 -138 4 -56 8 -119 10 -140 2 -20 6 -71 9 -112 4 -41 9
-95 12 -119 3 -24 7 -67 9 -95 9 -99 29 -300 40 -391 4 -33 8 -71 10 -85 4
-37 17 -151 20 -180 12 -93 17 -129 21 -160 3 -19 7 -53 10 -75 8 -75 15 -120
19 -135 2 -8 7 -40 10 -70 3 -30 7 -66 10 -80 2 -14 6 -45 9 -70 3 -25 7 -54
10 -65 5 -29 19 -117 21 -140 2 -11 6 -40 10 -65 4 -25 8 -51 8 -57 1 -25 16
-12 22 20 14 61 185 568 214 632 5 11 32 81 61 155 28 74 90 227 137 340 81
196 95 227 149 348 13 29 24 54 24 56 0 4 38 86 121 264 21 46 39 85 39 87 0
5 64 141 203 430 149 310 537 1077 635 1255 20 36 37 67 37 70 1 5 5 13 55
105 15 28 47 86 70 130 24 44 74 136 112 204 37 68 68 126 68 128 0 3 17 35
39 71 21 37 52 92 68 122 48 89 129 234 221 395 47 82 96 170 110 195 14 25
67 117 117 205 51 88 101 176 112 195 11 19 57 98 103 175 46 77 91 154 100
170 66 115 469 785 520 865 6 8 44 71 86 140 108 177 169 276 213 345 355 564
342 545 353 545 5 0 7 -4 4 -9 -11 -17 -116 -455 -171 -711 -11 -49 -55 -274
-64 -325 -6 -33 -13 -71 -16 -85 -5 -21 -18 -95 -41 -230 -2 -14 -6 -36 -9
-50 -3 -14 -7 -38 -9 -55 -6 -40 -15 -103 -21 -140 -3 -16 -7 -48 -10 -70 -3
-22 -10 -65 -15 -95 -5 -30 -12 -77 -15 -105 -4 -27 -8 -61 -10 -75 -2 -14 -9
-65 -15 -115 -12 -106 -19 -157 -25 -205 -3 -19 -7 -60 -10 -90 -3 -30 -8 -77
-10 -105 -6 -55 -12 -116 -21 -215 -10 -108 -15 -123 -164 -450 -6 -14 -31
-74 -56 -135 -25 -60 -51 -124 -59 -140 -13 -30 -176 -442 -235 -595 -36 -95
-191 -520 -196 -540 -2 -8 -53 -159 -112 -335 -108 -322 -171 -519 -223 -695
-15 -52 -42 -142 -59 -200 -18 -58 -33 -112 -35 -120 -2 -8 -26 -94 -54 -190
-27 -96 -70 -256 -96 -355 -25 -99 -57 -220 -70 -270 -19 -73 -86 -351 -100
-415 -2 -8 -8 -35 -15 -60 -6 -25 -13 -58 -16 -75 -3 -16 -12 -55 -20 -86 -14
-56 -78 -355 -99 -466 -3 -16 -17 -82 -30 -148 -13 -66 -36 -183 -50 -260 -14
-77 -28 -151 -31 -165 -2 -14 -6 -38 -9 -55 -2 -16 -6 -39 -8 -50 -3 -11 -8
-40 -12 -65 -4 -25 -9 -52 -10 -61 -4 -22 -14 -80 -21 -126 -3 -21 -7 -45 -9
-53 -2 -8 -7 -37 -11 -65 -3 -27 -8 -59 -10 -70 -2 -11 -7 -38 -10 -60 -2 -22
-7 -51 -9 -65 -2 -14 -7 -47 -11 -75 -3 -27 -8 -57 -9 -67 -2 -9 -6 -38 -10
-65 -4 -26 -8 -59 -10 -73 -2 -14 -7 -47 -10 -75 -4 -27 -9 -62 -11 -76 -2
-15 -6 -47 -9 -70 -3 -24 -7 -60 -10 -79 -2 -19 -7 -60 -10 -90 -3 -30 -8 -72
-10 -92 -3 -21 -7 -55 -10 -75 -2 -21 -9 -83 -15 -138 -6 -55 -12 -118 -15
-140 -2 -22 -7 -76 -10 -120 -4 -44 -8 -91 -10 -105 -2 -14 -7 -65 -10 -115
-4 -49 -9 -106 -10 -125 -2 -19 -7 -80 -10 -135 -4 -55 -8 -122 -10 -150 -2
-27 -6 -106 -10 -175 -4 -69 -9 -145 -11 -170 -19 -276 -26 -1327 -11 -1710
13 -308 23 -504 32 -610 3 -36 7 -92 9 -125 8 -120 17 -231 21 -262 3 -18 7
-65 11 -105 3 -40 7 -89 9 -108 2 -19 7 -64 10 -100 3 -36 8 -76 10 -90 2 -14
7 -50 10 -80 3 -30 8 -66 10 -80 2 -14 6 -52 10 -85 3 -33 8 -71 10 -85 2 -14
7 -43 9 -65 15 -118 19 -142 22 -159 2 -10 6 -44 10 -75 3 -31 8 -58 9 -61 2
-3 6 -26 9 -50 4 -25 9 -56 11 -70 2 -14 7 -45 10 -70 3 -25 8 -56 10 -70 3
-14 7 -36 10 -50 3 -14 7 -36 10 -50 2 -14 7 -41 10 -60 7 -45 24 -138 30
-170 3 -14 8 -41 11 -60 3 -19 7 -42 9 -50 2 -8 7 -31 10 -50 22 -132 145
-677 206 -915 22 -88 43 -168 45 -178 21 -90 162 -576 209 -722 15 -44 42
-127 60 -185 150 -470 418 -1158 621 -1598 19 -41 34 -75 34 -77 0 -14 264
-551 383 -780 130 -249 311 -571 443 -788 31 -51 64 -105 74 -122 70 -122 366
-575 501 -770 166 -239 583 -804 609 -825 3 -3 37 -44 74 -93 38 -48 71 -87
73 -87 2 0 -10 26 -26 58 -28 55 -72 148 -131 277 -15 33 -39 85 -53 115 -32
70 -137 309 -184 420 -20 47 -44 103 -53 125 -10 22 -43 105 -74 185 -32 80
-62 154 -67 165 -31 68 -232 641 -322 920 -171 528 -356 1296 -422 1750 -4 22
-8 47 -10 55 -2 8 -7 38 -10 65 -3 28 -10 73 -15 100 -5 28 -12 79 -16 115 -3
36 -7 72 -9 80 -1 8 -6 44 -10 80 -3 36 -8 79 -10 95 -2 17 -7 62 -10 100 -3
39 -8 90 -10 115 -5 55 -15 194 -20 275 -2 33 -6 182 -10 330 l-5 270 113
-225 c62 -124 138 -272 169 -330 31 -58 75 -141 98 -184 23 -44 48 -89 55
-100 7 -12 26 -46 42 -76 242 -447 655 -1096 1052 -1650 211 -296 675 -899
802 -1045 10 -11 78 -92 151 -180 118 -142 159 -191 193 -229 6 -6 39 -45 75
-86 74 -85 93 -107 216 -245 103 -116 84 -95 204 -225 301 -327 387 -417 770
-800 315 -316 541 -536 736 -715 12 -11 38 -36 59 -55 32 -30 36 -32 25 -10
-7 14 -25 43 -39 65 -14 22 -30 49 -37 60 -6 11 -49 85 -96 165 -46 80 -96
165 -110 190 -14 25 -42 74 -63 110 -20 36 -53 94 -72 130 -20 36 -48 88 -63
115 -460 841 -896 1795 -1220 2675 -39 107 -75 204 -80 215 -26 61 -222 651
-300 905 -91 297 -276 978 -306 1125 -2 11 -19 88 -38 171 -19 83 -37 163 -40
178 -3 14 -7 34 -10 44 -3 9 -7 28 -10 42 -2 14 -16 84 -31 155 -15 72 -29
143 -31 159 -2 15 -6 37 -9 47 -4 11 -8 34 -11 52 -2 17 -10 66 -19 107 -8 41
-19 104 -25 140 -5 36 -12 79 -15 95 -11 69 -15 91 -19 110 -2 11 -7 42 -10
69 l-8 48 72 -83 c39 -46 81 -95 93 -109 34 -41 160 -185 166 -190 3 -3 40
-43 81 -90 41 -47 80 -90 85 -96 412 -449 880 -914 1295 -1289 36 -32 67 -62
70 -65 5 -5 295 -260 350 -306 14 -12 75 -64 135 -116 96 -83 390 -324 486
-400 19 -14 44 -35 55 -45 12 -10 36 -29 54 -43 18 -14 96 -74 174 -134 350
-272 829 -621 1211 -881 72 -49 165 -112 208 -142 42 -29 81 -53 86 -53 5 0
11 -3 13 -7 3 -8 140 -102 168 -116 8 -4 62 -38 120 -77 174 -114 629 -398
885 -550 132 -78 252 -151 267 -161 15 -11 30 -19 33 -19 3 0 60 -32 128 -71
67 -40 138 -81 157 -92 59 -33 272 -152 330 -184 92 -51 173 -95 208 -115 19
-10 73 -39 120 -65 48 -25 110 -58 137 -73 28 -15 97 -52 155 -82 58 -31 149
-78 202 -107 54 -28 101 -51 105 -51 4 0 -40 44 -98 97 -154 144 -794 786
-944 947 -72 77 -160 172 -196 210 -106 114 -382 421 -450 501 -19 22 -36 42
-39 45 -3 3 -32 37 -65 75 -33 39 -62 72 -66 75 -3 3 -29 34 -58 70 -30 36
-57 67 -60 70 -3 3 -22 25 -42 50 -20 25 -47 56 -58 70 -45 52 -60 70 -222
270 -148 183 -397 503 -519 665 -25 33 -50 66 -57 75 -57 73 -348 476 -458
635 -27 39 -64 93 -84 120 -75 107 -464 696 -496 752 -6 10 -24 38 -40 63 -16
25 -34 53 -40 62 -130 214 -386 641 -412 688 -16 30 -57 102 -90 160 -33 58
-79 141 -103 185 -24 44 -46 85 -50 90 -7 9 -24 42 -148 275 -52 100 -288 566
-334 662 l-27 55 272 -181 c150 -100 323 -213 385 -251 62 -39 136 -85 165
-103 52 -32 176 -107 209 -127 10 -5 95 -56 190 -111 95 -56 190 -111 211
-123 20 -11 52 -29 70 -39 17 -10 57 -32 87 -49 30 -17 105 -58 167 -92 484
-265 1163 -596 1723 -837 107 -47 204 -89 215 -93 721 -313 1812 -706 2720
-980 198 -60 412 -123 477 -140 40 -11 98 -27 128 -36 30 -9 62 -18 70 -20 34
-10 243 -66 345 -94 61 -16 146 -39 190 -51 44 -12 87 -23 95 -25 8 -2 155
-38 325 -80 171 -43 319 -79 330 -81 11 -2 56 -13 100 -23 44 -11 81 -18 82
-17 2 1 -77 47 -174 102 -97 54 -197 111 -223 125 -78 44 -320 189 -403 240
-43 27 -80 49 -82 49 -5 0 -326 201 -478 299 -191 122 -717 472 -772 513 -5 4
-23 18 -40 31 -16 12 -50 36 -75 52 -42 28 -189 133 -325 233 -33 24 -71 52
-85 62 -68 49 -559 421 -656 498 -189 148 -367 294 -673 550 -86 72 -484 420
-548 479 -23 21 -83 76 -134 123 -309 282 -839 801 -1093 1070 -188 199 -233
247 -286 305 -85 93 -213 235 -256 285 -21 25 -41 47 -44 50 -98 98 -674 799
-880 1069 -28 38 -273 365 -296 396 -184 251 -490 701 -681 1000 -122 192
-373 603 -373 610 0 3 -17 33 -38 67 -21 35 -84 144 -139 243 -147 264 -154
277 -151 280 45 35 418 296 573 400 420 283 1060 673 1445 883 30 16 75 41
100 54 293 162 498 269 870 456 302 151 514 254 730 355 41 19 109 51 150 70
729 341 1854 804 2825 1164 171 63 333 123 360 133 28 11 133 49 235 85 215
77 631 231 675 250 17 8 77 32 135 55 97 39 210 86 270 112 14 6 30 12 35 14
10 2 280 123 425 190 112 51 638 314 715 357 33 18 83 46 110 61 28 16 79 44
115 64 284 156 767 462 1095 695 205 146 583 445 760 601 237 209 265 236 510
481 234 233 352 359 512 545 414 482 800 1031 1155 1640 79 135 103 178 223
400 58 108 345 682 407 815 92 198 117 252 161 350 25 55 56 125 70 155 14 30
91 204 172 385 80 182 154 348 164 370 307 677 449 958 669 1325 355 590 762
998 1237 1238 89 45 212 102 221 102 3 0 20 6 37 14 119 52 383 121 532 140
213 27 452 28 645 1 268 -37 593 -143 820 -268 41 -23 77 -42 80 -42 3 0 19
-9 35 -20 81 -51 231 -150 240 -157 52 -40 243 -194 251 -202 106 -101 196
-191 255 -258 41 -45 82 -91 92 -103 83 -91 277 -369 366 -523 24 -41 44 -72
46 -70 4 3 9 28 20 101 3 17 7 43 10 57 4 25 14 103 22 170 2 19 5 51 7 70 25
210 25 554 2 730 -2 14 -7 50 -10 80 -62 479 -304 990 -705 1485 -206 254
-514 571 -815 840 -6 6 -31 28 -56 50 -40 35 -47 47 -63 115 -10 41 -20 89
-23 105 -3 17 -34 143 -70 280 -35 138 -66 259 -69 269 -2 10 -9 33 -14 50 -5
17 -24 78 -41 136 -364 1218 -897 2179 -1584 2855 -220 217 -407 370 -636 520
-58 38 -116 76 -130 85 -59 39 -256 144 -390 208 -352 169 -723 285 -1155 361
-89 16 -232 35 -350 46 -33 3 -78 8 -99 10 -62 7 -361 18 -471 18 -112 0 -420
-12 -457 -18 -12 -2 -65 -6 -116 -10 -51 -3 -100 -8 -110 -9 -9 -2 -48 -7 -87
-10 -38 -4 -81 -9 -95 -11 -14 -2 -45 -7 -70 -10 -59 -8 -71 -10 -225 -35 -71
-12 -139 -23 -150 -25 -11 -2 -67 -13 -125 -25 -58 -12 -116 -24 -130 -26 -13
-3 -63 -14 -110 -25 -47 -11 -92 -22 -100 -24 -8 -2 -33 -8 -55 -13 -22 -6
-78 -20 -124 -31 -97 -25 -325 -88 -361 -100 -14 -5 -59 -19 -100 -31 -109
-32 -581 -190 -603 -202 -10 -5 -26 -11 -35 -13 -38 -7 -544 -208 -752 -298
-155 -67 -379 -167 -510 -228 -124 -58 -769 -379 -810 -403 -14 -8 -88 -48
-165 -89 -163 -86 -188 -101 -393 -216 -230 -129 -223 -125 -432 -249 -107
-63 -213 -126 -235 -139 -42 -25 -45 -27 -134 -83 -31 -19 -68 -41 -83 -50
-133 -76 -1081 -692 -1143 -742 -35 -29 -358 -248 -365 -248 -5 0 -10 -3 -12
-8 -1 -4 -97 -74 -213 -157 -115 -82 -232 -166 -260 -187 -27 -21 -55 -38 -60
-38 -6 0 -29 21 -50 47 -22 27 -89 104 -149 173 -60 69 -131 150 -157 180 -26
30 -97 114 -159 185 -62 72 -122 141 -134 155 -11 14 -66 77 -121 140 -55 64
-125 145 -155 180 -30 35 -59 68 -65 74 -5 6 -39 45 -75 86 -36 41 -67 77 -70
80 -3 3 -30 34 -60 70 -30 36 -58 67 -61 70 -3 3 -52 59 -109 125 -58 66 -109
125 -115 131 -5 6 -31 35 -57 65 -69 80 -86 100 -121 139 -18 19 -75 85 -127
145 -52 61 -101 117 -110 125 -8 8 -62 69 -120 135 -57 66 -107 122 -110 125
-3 3 -39 43 -80 90 -64 72 -101 113 -155 174 -5 6 -64 72 -130 146 -66 74
-122 137 -125 140 -3 3 -68 75 -145 160 -77 85 -144 160 -150 166 -130 143
-286 313 -347 379 -26 27 -57 61 -68 75 -12 14 -45 50 -74 80 -28 30 -85 91
-126 135 -41 44 -140 150 -220 235 -80 85 -158 168 -173 184 -49 53 -365 383
-532 555 -355 366 -1141 1145 -1420 1407 -27 25 -89 83 -136 128 -47 44 -137
128 -199 186 -63 58 -143 133 -179 166 -37 34 -86 79 -110 100 -24 22 -56 50
-71 64 -155 143 -408 369 -560 500 -41 36 -77 67 -80 70 -14 15 -377 325 -545
464 -104 87 -201 168 -215 179 -56 48 -584 469 -705 563 -240 185 -266 205
-425 324 -188 141 -547 403 -610 445 -25 17 -54 38 -64 48 -11 9 -23 17 -27
17 -4 0 -14 6 -21 13 -7 7 -65 48 -128 92 -63 43 -135 93 -160 110 -217 152
-835 555 -850 555 -5 0 -10 4 -12 8 -3 7 -344 219 -501 313 -32 19 -66 39 -75
44 -10 6 -55 33 -102 60 -47 28 -92 55 -102 60 -9 6 -29 17 -45 26 -15 9 -98
56 -183 104 -208 118 -199 113 -335 187 -206 112 -275 149 -450 240 -182 95
-589 297 -720 358 -44 21 -129 61 -188 89 -59 28 -110 51 -112 51 -1 0 -41 17
-87 39 -90 42 -557 244 -678 293 -41 17 -88 36 -105 43 -66 29 -291 117 -485
190 -309 116 -335 125 -345 125 -6 0 -21 6 -35 13 -25 13 -676 232 -795 267
-33 10 -123 37 -200 60 -214 64 -465 134 -620 175 -242 63 -397 102 -490 124
-49 11 -130 30 -180 42 -49 11 -99 23 -109 25 -11 2 -73 15 -139 30 -65 14
-129 27 -141 30 -11 2 -75 15 -141 28 -66 14 -131 27 -145 29 -14 3 -65 13
-115 22 -49 10 -99 19 -110 20 -11 2 -60 11 -110 20 -49 8 -106 18 -125 21
-19 3 -42 7 -50 9 -8 2 -33 7 -55 10 -23 3 -52 8 -65 10 -14 3 -43 8 -65 11
-43 5 -85 12 -125 19 -14 2 -43 7 -65 10 -22 2 -71 9 -110 15 -38 6 -90 13
-115 16 -25 2 -56 7 -70 9 -14 3 -50 7 -80 11 -30 3 -63 8 -73 10 -10 2 -46 6
-80 9 -34 3 -73 8 -87 10 -14 3 -55 7 -91 10 -36 3 -74 7 -86 9 -11 3 -56 7
-99 11 -43 4 -89 8 -102 10 -12 2 -57 7 -100 10 -42 3 -93 8 -112 10 -19 2
-75 7 -125 11 -49 3 -106 8 -125 9 -19 2 -82 6 -140 10 -58 3 -123 8 -145 10
-22 2 -103 6 -180 10 -77 4 -176 8 -220 10 -186 10 -1121 25 -1128 19z"/>
</g>
</svg>
