<?xml version="1.0" encoding="UTF-8"?>
<svg xmlns="http://www.w3.org/2000/svg" xmlns:xlink="http://www.w3.org/1999/xlink" viewBox="0 0 1074.19 1021.62">
  <defs>
    <style>
      .cls-1 {
        fill: url(#linear-gradient);
      }

      .cls-1, .cls-2, .cls-3, .cls-4, .cls-5, .cls-6, .cls-7 {
        stroke-width: 0px;
      }

      .cls-2 {
        mix-blend-mode: multiply;
      }

      .cls-2, .cls-6 {
        fill: #f2bf18;
      }

      .cls-8 {
        isolation: isolate;
      }

      .cls-3 {
        fill: url(#linear-gradient-5);
      }

      .cls-4 {
        fill: url(#linear-gradient-2);
      }

      .cls-5 {
        fill: url(#linear-gradient-3);
      }

      .cls-7 {
        fill: url(#linear-gradient-4);
      }
    </style>
    <linearGradient id="linear-gradient" x1="629.07" y1="59.26" x2="556.45" y2="1025.94" gradientUnits="userSpaceOnUse">
      <stop offset=".05" stop-color="#ffff54"/>
      <stop offset=".98" stop-color="#ffff54" stop-opacity="0"/>
    </linearGradient>
    <linearGradient id="linear-gradient-2" x1="834.72" y1="74.72" x2="762.11" y2="1041.36" xlink:href="#linear-gradient"/>
    <linearGradient id="linear-gradient-3" x1="756.75" y1="68.85" x2="684.14" y2="1035.53" xlink:href="#linear-gradient"/>
    <linearGradient id="linear-gradient-4" x1="427.5" y1="44.1" x2="354.88" y2="1010.8" xlink:href="#linear-gradient"/>
    <linearGradient id="linear-gradient-5" x1="298.88" y1="34.44" x2="226.26" y2="1001.14" xlink:href="#linear-gradient"/>
  </defs>
  <g class="cls-8">
    <g id="Layer_1" data-name="Layer 1">
      <g>
        <polygon class="cls-6" points="537.1 0 703.06 336.3 1074.19 390.23 805.65 651.99 869.04 1021.62 537.1 847.11 205.15 1021.62 268.55 651.99 0 390.23 371.13 336.3 537.1 0"/>
        <polygon class="cls-2" points="537.1 0 703.06 336.3 1074.19 390.23 805.65 651.99 869.04 1021.62 537.1 847.11 205.15 1021.62 268.55 651.99 0 390.23 371.13 336.3 537.1 0"/>
        <polygon class="cls-1" points="704.66 336.53 703.06 336.3 537.1 0 537.1 545.4 704.66 336.53"/>
        <polygon class="cls-4" points="538.3 551.44 805.65 651.99 1071.43 392.93 538.3 551.44"/>
        <polygon class="cls-5" points="537.1 847.11 869.04 1021.62 537.1 545.4 537.1 847.11"/>
        <polygon class="cls-7" points="268.55 651.99 205.15 1021.62 538.3 551.44 268.55 651.99"/>
        <polygon class="cls-3" points="1.7 389.98 530.73 548.42 366.44 336.99 1.7 389.98"/>
      </g>
    </g>
  </g>
</svg>