<?xml version="1.0" encoding="UTF-8"?>
<svg xmlns="http://www.w3.org/2000/svg" viewBox="0 0 492.36 459.9">
  <defs>
    <style>
      .cls-1, .cls-2, .cls-3, .cls-4, .cls-5, .cls-6 {
        stroke: #263238;
        stroke-miterlimit: 10;
      }

      .cls-1, .cls-7 {
        fill: #fff;
      }

      .cls-8 {
        fill: #b2b2b2;
      }

      .cls-8, .cls-9, .cls-10, .cls-11, .cls-7 {
        stroke-width: 0px;
      }

      .cls-2, .cls-11 {
        fill: #263238;
      }

      .cls-3, .cls-10 {
        fill: #92e3a9;
      }

      .cls-4 {
        fill: #dedede;
      }

      .cls-12 {
        opacity: .3;
      }

      .cls-5 {
        fill: none;
      }

      .cls-7 {
        opacity: .7;
      }

      .cls-6 {
        fill: #ababab;
      }
    </style>
  </defs>
  <g id="Background_Simple" data-name="Background Simple">
    <g>
      <path class="cls-10" d="M451.67,92.79c-1.68-2.79-3.42-5.54-5.25-8.22-24.28-35.67-64.69-60.09-103.97-71.15-17.21-4.85-34.87-7.39-52.51-8.04C174.26,1.17,131.76,96.55,94.49,121.14,57.22,145.74.03,187.74,7.21,275.98c5.45,67.09,43.61,131.24,113.32,160.43,7.68,3.22,15.74,6.02,24.19,8.35,15.71,4.32,32.74,7.04,51.09,7.85,52.7,2.35,95.49-10.36,137.35-42.34,9.73-7.44,19.41-15.82,32.03-16.74,9.18-.67,17.88,2.63,8.29,11.5-11.27,10.42,1.73,30.93,30.36,16.68,47.8-23.79,67.47-75.12,76.73-127.32,11.37-64.07,5.86-143.74-28.89-201.6Z"/>
      <path class="cls-7" d="M451.67,92.79c-1.68-2.79-3.42-5.54-5.25-8.22-24.28-35.67-64.69-60.09-103.97-71.15-17.21-4.85-34.87-7.39-52.51-8.04C174.26,1.17,131.76,96.55,94.49,121.14,57.22,145.74.03,187.74,7.21,275.98c5.45,67.09,43.61,131.24,113.32,160.43,7.68,3.22,15.74,6.02,24.19,8.35,15.71,4.32,32.74,7.04,51.09,7.85,52.7,2.35,95.49-10.36,137.35-42.34,9.73-7.44,19.41-15.82,32.03-16.74,9.18-.67,17.88,2.63,8.29,11.5-11.27,10.42,1.73,30.93,30.36,16.68,47.8-23.79,67.47-75.12,76.73-127.32,11.37-64.07,5.86-143.74-28.89-201.6Z"/>
    </g>
  </g>
  <g id="Space">
    <path class="cls-11" d="M206.19,436.37c-3.7,0-7.53-.09-11.38-.26-16.67-.74-32.65-3.19-47.52-7.28-7.58-2.08-14.99-4.64-22.04-7.6-58.65-24.56-96.87-78.9-102.27-145.36-2.78-34.24,4.79-63.05,23.16-88.07,15.51-21.14,36.19-36.28,56.23-49.5,13.07-8.62,24.73-21.67,38.24-36.79,31.75-35.53,71.27-79.75,143.52-79.75,2.21,0,4.48.04,6.73.12,17.02.63,33.38,3.12,48.62,7.42,39.15,11.02,74.26,34.86,93.94,63.77,1.57,2.3,3.14,4.77,4.67,7.32,34.67,57.73,36.58,137.15,26.8,192.23-9.69,54.57-27.59,89.35-55.96,108.2-.41-2.48-1.06-4.53-1.64-6-5.01-12.79-17.97-20.43-34.68-20.43-1.4,0-2.83.05-4.25.16-19.79,1.44-34.16,12.56-44.65,20.67-.9.69-1.79,1.39-2.69,2.07-35.36,27.03-70.78,39.08-114.84,39.08Z"/>
  </g>
  <g id="Stars">
    <circle class="cls-8" cx="362.53" cy="76.7" r="4.69"/>
    <circle class="cls-8" cx="441.07" cy="156.07" r="4.69"/>
    <circle class="cls-8" cx="116.79" cy="378.43" r="4.69"/>
    <circle class="cls-8" cx="402.48" cy="374.35" r="4.69"/>
    <path class="cls-8" d="M248.49,35.85c0,1.48-1.2,2.68-2.68,2.68s-2.68-1.2-2.68-2.68,1.2-2.68,2.68-2.68,2.68,1.2,2.68,2.68Z"/>
    <circle class="cls-8" cx="62" cy="197.66" r="4.69"/>
    <circle class="cls-8" cx="400.24" cy="80.2" r="2.33"/>
    <circle class="cls-10" cx="86.94" cy="347.09" r="2.33"/>
    <circle class="cls-10" cx="430.61" cy="327.9" r="2.33"/>
    <path class="cls-10" d="M216.25,392.15c0,1.29-1.04,2.33-2.33,2.33s-2.33-1.04-2.33-2.33,1.04-2.33,2.33-2.33,2.33,1.04,2.33,2.33Z"/>
    <path class="cls-8" d="M96.95,310c0,1.29-1.04,2.33-2.33,2.33s-2.33-1.04-2.33-2.33,1.04-2.33,2.33-2.33,2.33,1.04,2.33,2.33Z"/>
    <path class="cls-8" d="M193.36,421.6c0,1.29-1.04,2.33-2.33,2.33s-2.33-1.04-2.33-2.33,1.04-2.33,2.33-2.33,2.33,1.04,2.33,2.33Z"/>
    <path class="cls-10" d="M327.41,46.51c0,1.29-1.04,2.33-2.33,2.33s-2.33-1.04-2.33-2.33,1.04-2.33,2.33-2.33,2.33,1.04,2.33,2.33Z"/>
    <path class="cls-8" d="M331.43,301.04c0,1.29-1.04,2.33-2.33,2.33s-2.33-1.04-2.33-2.33,1.04-2.33,2.33-2.33,2.33,1.04,2.33,2.33Z"/>
    <path class="cls-8" d="M438.32,210.55c0,1.29-1.04,2.33-2.33,2.33s-2.33-1.04-2.33-2.33,1.04-2.33,2.33-2.33,2.33,1.04,2.33,2.33Z"/>
    <circle class="cls-10" cx="57.33" cy="299.77" r="2.33"/>
    <circle class="cls-8" cx="264.74" cy="405.29" r="2.33"/>
    <circle class="cls-10" cx="180.32" cy="314.47" r="2.33"/>
    <path class="cls-10" d="M335.49,126.45c0,1.29-1.04,2.33-2.33,2.33s-2.33-1.04-2.33-2.33,1.04-2.33,2.33-2.33,2.33,1.04,2.33,2.33Z"/>
  </g>
  <g id="Text">
    <path class="cls-3" d="M121.82,314.7v-49.06h-59.66v-29.09l52.02-121.54h39.69v123.52h20.46v27.12h-20.46v49.06h-32.05ZM90.75,238.52h31.06v-86.78l-31.06,86.78ZM244.35,317.66c-11.67,0-21.33-2.47-28.97-7.4-7.64-4.93-13.4-11.75-17.26-20.46-3.86-8.71-5.79-18.74-5.79-30.08v-88.51c0-11.67,1.85-21.9,5.55-30.69,3.7-8.79,9.37-15.66,17.01-20.59,7.64-4.93,17.46-7.4,29.46-7.4s21.82,2.47,29.46,7.4,13.31,11.8,17.01,20.59c3.7,8.79,5.55,19.03,5.55,30.69v88.51c0,11.34-1.93,21.37-5.79,30.08-3.86,8.71-9.62,15.53-17.26,20.46s-17.3,7.4-28.97,7.4ZM244.35,288.32c5.09,0,8.88-1.56,11.34-4.69,2.47-3.12,4.11-6.9,4.93-11.34.82-4.44,1.23-8.79,1.23-13.07v-87.52c0-4.6-.37-9.16-1.11-13.68-.74-4.52-2.34-8.34-4.81-11.46-2.47-3.12-6.33-4.68-11.59-4.68s-9.12,1.56-11.59,4.68c-2.47,3.12-4.07,6.95-4.81,11.46-.74,4.52-1.11,9.08-1.11,13.68v87.52c0,4.28.45,8.63,1.36,13.07.9,4.44,2.59,8.22,5.05,11.34,2.47,3.13,6.16,4.69,11.09,4.69ZM377.73,314.7v-49.06h-59.66v-29.09l52.02-121.54h39.69v123.52h20.46v27.12h-20.46v49.06h-32.05ZM346.66,238.52h31.07v-86.78l-31.07,86.78Z"/>
    <g>
      <path class="cls-8" d="M137.66,369.53v-40.01h14.47v2.91h-10.67v15.01h8.69v2.77h-8.69v16.5h10.77v2.82h-14.57Z"/>
      <path class="cls-8" d="M157.37,369.53v-40.01h9.04c2.5,0,4.47.4,5.9,1.21,1.43.81,2.46,1.98,3.09,3.51.62,1.53.94,3.35.94,5.46,0,1.48-.16,2.88-.49,4.2-.33,1.32-.89,2.44-1.68,3.36-.79.92-1.91,1.53-3.36,1.83l6.12,20.45h-3.65l-5.88-19.66h-6.27v19.66h-3.75ZM161.12,347.1h5.09c1.68,0,2.98-.28,3.9-.84.92-.56,1.58-1.38,1.98-2.47.4-1.09.59-2.45.59-4.1,0-2.47-.43-4.31-1.28-5.53-.86-1.22-2.55-1.83-5.09-1.83h-5.19v14.77Z"/>
      <path class="cls-8" d="M182.65,369.53v-40.01h9.04c2.5,0,4.47.4,5.9,1.21,1.43.81,2.46,1.98,3.09,3.51.62,1.53.94,3.35.94,5.46,0,1.48-.17,2.88-.49,4.2-.33,1.32-.89,2.44-1.68,3.36-.79.92-1.91,1.53-3.36,1.83l6.12,20.45h-3.65l-5.88-19.66h-6.27v19.66h-3.75ZM186.41,347.1h5.09c1.68,0,2.98-.28,3.9-.84.92-.56,1.58-1.38,1.98-2.47.4-1.09.59-2.45.59-4.1,0-2.47-.43-4.31-1.28-5.53-.86-1.22-2.55-1.83-5.09-1.83h-5.19v14.77Z"/>
      <path class="cls-8" d="M217.38,370.02c-2.63,0-4.7-.52-6.2-1.56-1.5-1.04-2.55-2.49-3.16-4.35-.61-1.86-.91-3.99-.91-6.4v-16.6c0-2.44.32-4.55.96-6.35.64-1.79,1.71-3.19,3.21-4.17,1.5-.99,3.53-1.48,6.1-1.48s4.65.49,6.15,1.48c1.5.99,2.56,2.38,3.19,4.17.63,1.79.94,3.91.94,6.35v16.65c0,2.4-.3,4.53-.91,6.37-.61,1.84-1.65,3.28-3.14,4.32-1.48,1.04-3.56,1.56-6.22,1.56ZM217.38,367.01c1.78,0,3.13-.35,4.05-1.06.92-.71,1.56-1.7,1.9-2.96.35-1.27.52-2.74.52-4.42v-18.13c0-1.68-.17-3.14-.52-4.4-.35-1.25-.98-2.21-1.9-2.89-.92-.67-2.27-1.01-4.05-1.01s-3.09.34-4.03,1.01c-.94.68-1.58,1.64-1.93,2.89-.35,1.25-.52,2.72-.52,4.4v18.13c0,1.68.17,3.15.52,4.42.35,1.27.99,2.26,1.93,2.96.94.71,2.28,1.06,4.03,1.06Z"/>
      <path class="cls-8" d="M233.87,369.53v-40.01h9.04c2.5,0,4.47.4,5.9,1.21,1.43.81,2.46,1.98,3.09,3.51.62,1.53.94,3.35.94,5.46,0,1.48-.17,2.88-.49,4.2-.33,1.32-.89,2.44-1.68,3.36-.79.92-1.91,1.53-3.36,1.83l6.13,20.45h-3.65l-5.88-19.66h-6.27v19.66h-3.75ZM237.63,347.1h5.09c1.68,0,2.98-.28,3.9-.84.92-.56,1.58-1.38,1.98-2.47.4-1.09.59-2.45.59-4.1,0-2.47-.43-4.31-1.28-5.53-.86-1.22-2.55-1.83-5.09-1.83h-5.18v14.77Z"/>
      <path class="cls-8" d="M269.24,369.53v-40.01h9.58c2.4,0,4.29.44,5.66,1.33,1.37.89,2.35,2.12,2.94,3.7.59,1.58.89,3.44.89,5.58,0,1.88-.3,3.61-.91,5.21-.61,1.6-1.61,2.87-3.01,3.83-1.4.96-3.24,1.43-5.51,1.43h-5.88v18.92h-3.75ZM272.99,347.79h4.79c1.61,0,2.92-.24,3.93-.72,1-.48,1.74-1.28,2.2-2.4.46-1.12.69-2.63.69-4.54,0-2.04-.2-3.63-.59-4.77-.4-1.14-1.08-1.93-2.05-2.37-.97-.44-2.35-.67-4.12-.67h-4.84v15.46Z"/>
      <path class="cls-8" d="M288.89,369.53l8.45-40.01h3.95l8.5,40.01h-3.7l-1.98-10.72h-9.53l-2.03,10.72h-3.65ZM295.12,356.09h8.5l-4.3-21.58-4.2,21.58Z"/>
      <path class="cls-8" d="M323.57,370.07c-2.5,0-4.47-.53-5.9-1.58-1.43-1.05-2.45-2.54-3.04-4.47-.59-1.93-.89-4.16-.89-6.69v-15.61c0-2.57.29-4.79.86-6.67.58-1.88,1.6-3.33,3.06-4.37,1.46-1.04,3.53-1.56,6.2-1.56,2.4,0,4.3.44,5.7,1.33,1.4.89,2.41,2.19,3.04,3.9.62,1.71.94,3.8.94,6.27v1.38h-3.56v-1.38c0-1.91-.17-3.49-.52-4.74-.35-1.25-.95-2.19-1.8-2.82-.86-.62-2.12-.94-3.8-.94-1.81,0-3.18.4-4.1,1.19-.92.79-1.52,1.88-1.8,3.26-.28,1.38-.42,2.96-.42,4.74v16.45c0,1.94.17,3.61.52,4.99.35,1.38.99,2.44,1.93,3.16.94.72,2.26,1.09,3.98,1.09s2.92-.37,3.83-1.11c.91-.74,1.54-1.8,1.9-3.19.36-1.38.54-3.06.54-5.04v-4.69h-5.93v-2.82h9.38v19.36h-2.42l-.44-4.54c-.49,1.55-1.31,2.78-2.44,3.7-1.14.92-2.74,1.38-4.82,1.38Z"/>
      <path class="cls-8" d="M340.16,369.53v-40.01h14.47v2.91h-10.67v15.01h8.69v2.77h-8.69v16.5h10.77v2.82h-14.57Z"/>
    </g>
  </g>
  <g id="Shadow">
    <g class="cls-12">
      <path class="cls-9" d="M320.7,260.96s.09.08.13.12c.17.14.36.27.56.39.05.03.1.06.15.08.17.1.36.18.55.27.07.03.13.06.2.08.25.1.52.18.81.26.05.01.1.02.14.03.26.06.54.11.83.15.09.01.19.03.28.04.35.04.72.08,1.12.09,0,0,0,0,0,0,1.36.05,2.77-.21,4.13-.75.68-.27,1.35-.61,2-1.01.43-.27.86-.57,1.27-.89.21-.16.41-.33.61-.51.4-.35.78-.73,1.15-1.13,3.31-3.63,5.27-9.3,3.65-15.98-.4-1.66-.83-3.23-1.29-4.72-.76-2.51-1.6-4.8-2.5-6.85-.24-.54-.49-1.07-.74-1.58-.6-1.22-1.24-2.33-1.9-3.36-.44-.69-.89-1.35-1.36-1.95-1.17-1.5-2.42-2.73-3.75-3.69-.33-.24-.67-.46-1.01-.67-.08-.05-.18-.09-.27-.14l-7.42,17.34v19.25c.71,1.98,1.19,3.76,2.45,4.98,0,0-.01,0-.02,0,.07.06.14.12.21.18Z"/>
      <path class="cls-9" d="M296.37,255.79v-34.29c-.98.04-1.88.08-2.67.13.04-1.07.19-8.32-1.81-16.1-.09-6.88-2.92-13.13-7.45-17.41-.47-6.65-4.18-14.4-8.33-19.84.1,0,.2.03.31.02,1.66-.18,2.7-2.25,3.43-5.84.1-.49.17-.95.23-1.4,1.31-.88,2.94-2.19,3.7-3.65.41-.78.8-2.08.98-3.58,1.33-.79,3.12-2.07,4.91-4.06,1.28-1.42,2.16-3.4,2.54-5.56-.44-1.25-.9-2.48-1.4-3.68-2.22-5.27-5.16-9.83-8.79-13.71-1.04-.55-2.17-1.01-3.4-1.34-1.11-.3-2.21-.44-3.29-.46-3.08-.64-9.55-1.73-18.41-1.94-2.99-.07-5.67-.06-8.08.09-2.05-.88-4.29-1.27-6.59-1.02-1.41.15-2.74.54-3.98,1.1-3.81-1-7.65-1.26-10.81-.92-.76.08-1.51.18-2.24.29-.03-.38-.05-.76-.09-1.14-.08-.73-.19-1.45-.33-2.16.09-1.32.1-2.66.02-4.01-3.65,1.17-6.97,2.72-9.95,4.64-7.64,4.93-13.31,11.8-17.01,20.59-3.7,8.79-5.55,19.03-5.55,30.69v8.78c3.58,4.63,7.9,9.82,10.75,11.81.21.22.42.43.62.64.2,3.45.8,11.22,2.3,13.78,0,0-1.17,4.13.82,6.21-.61,4.62-1.42,16.2,3.38,27.59,3.73,8.85,10.1,13.63,16.64,15.15v-83.47c0-4.6.37-9.16,1.11-13.68.74-4.52,2.34-8.34,4.81-11.46,2.46-3.12,6.32-4.68,11.59-4.68s9.12,1.56,11.59,4.68c2.47,3.12,4.07,6.95,4.81,11.46.74,4.52,1.11,9.08,1.11,13.68v87.52c0,1.47-.07,2.96-.16,4.45.05.29.11.56.18.8,0,0,0,0,0,0,0,0,0,0,0,.02.09.3.19.57.29.81.02.05.05.09.07.14.09.19.19.37.3.52.03.04.06.08.09.12.14.18.28.35.45.49,0,0,.01,0,.02.01.16.13.32.25.5.36.04.03.09.05.14.08.16.09.33.17.51.24.03.01.06.03.09.04.21.08.44.15.67.22.05.01.11.03.16.04.2.05.4.11.61.16.08.02.15.04.23.06.24.06.49.11.75.17,3.62.84,9.8-4.07,11.38-9.01.31-.96.55-2.09.74-3.28.2-.03.4-.06.6-.09,3.15.64,9.77,1.57,16.9.2ZM273.42,165.12s-.02-.02-.03-.03c.02-.14.04-.28.06-.43-.02.19-.03.35-.03.46ZM273.73,162.62c.07-.51.13-1.01.19-1.49h.03c-.08.53-.15,1.03-.22,1.49Z"/>
      <path class="cls-9" d="M153.87,183.09c-1.29,3.22-2.43,6.14-3.01,7.76-1.84,5.16-3.77,10.98-3.73,14.34.04,3.36,2.11,7.62,3.73,7.76,1.61.14,2.77-.94,3.01-3.18v-26.68Z"/>
    </g>
  </g>
  <g id="Character">
    <g>
      <g>
        <path class="cls-4" d="M269.13,193.01s.99,7.49.93,15.09c-.06,7.6,1.73,7.76,5.35,8.6s9.8-4.07,11.38-9.01c1.58-4.94,1.43-14.46,1.43-14.46l-19.1-.22Z"/>
        <path class="cls-4" d="M285.67,202.16c-.16,3.37-1.17,8.78-6.17,11.44-4.25,2.26-7.94.27-8.96-.39.74,2.64,2.37,2.9,4.88,3.48,3.62.84,9.8-4.07,11.38-9.01,1.58-4.94,1.43-14.46,1.43-14.46l-2.23-.03c-.08,2.5-.22,6.69-.33,8.96Z"/>
      </g>
      <path class="cls-4" d="M251.9,200.18s5.99-.12,14.14-3.13c8.15-3,17.3-9.83,15.34-16.5-1.96-6.67-12.58-8.52-16.77-8.07-4.19.45-9,1.68-9,1.68,0,0,.98,18.79-3.71,26.01Z"/>
      <path class="cls-3" d="M247.96,202.91s5.35-1.11,8.6-5.35,4.45-11.08,2.71-15.66-11.32,21.01-11.32,21.01Z"/>
      <path class="cls-4" d="M215.83,159.07s-3.14,15,3.05,29.69c6.19,14.69,19.63,18.17,29.08,14.15s11.71-17.34,11.81-26.18-.16-12.87-.16-12.87c0,0-31.8,3.1-43.78-4.78Z"/>
      <path class="cls-3" d="M214.67,154.96s-1.41,4.92,1.44,6.73c2.85,1.81,17.56,10.45,35.03,7.14,9.76-1.85,7.61-4.71,7.44-6.28-.17-1.57-43.91-7.59-43.91-7.59Z"/>
      <path class="cls-1" d="M212.29,139.5s.44,12.14,2.39,15.46c1.95,3.32,27.77,13.41,40.88,10.57,13.11-2.84,34.45-14.51,37.05-23.1,2.6-8.58-4.16-22.09-10.52-28.58s-9.15-7.78-9.15-7.78c0,0-15.58,20.76-34.96,27.64-19.38,6.87-25.68,5.79-25.68,5.79Z"/>
      <g>
        <path class="cls-1" d="M315.21,170.17s13.72-5.38,19.2-2.09c5.48,3.29,9.67,10.96,12.55,22.83,2.88,11.87-5.54,20.56-12.81,20.29-7.27-.27-6.02-5-8.84-9.81-2.82-4.81-6.3-7.62-6.53-8.12-.23-.5,3.24-15.71-3.57-23.1Z"/>
        <path class="cls-1" d="M334.41,168.08c-1.46-.88-3.52-1.14-5.74-1.05,2.78,2.05,8.26,7.07,11.85,16.63,4.97,13.23,2.72,20.19.18,22.76-2.55,2.57-7.92,3.51-10.24,3.23-.38-.05-.83-.1-1.3-.16,1,.98,2.49,1.6,5,1.7,7.27.27,15.69-8.41,12.81-20.29-2.88-11.87-7.07-19.54-12.55-22.83Z"/>
      </g>
      <path class="cls-1" d="M286.21,203.87s12.94,3.72,24.95-1.12c12.01-4.84,19.09-12.85,16.44-22.62-2.65-9.78-7.63-10.12-18.57-9.99-10.93.13-13.13,1.07-13.13,1.07,0,0-.36,27.59-9.7,32.66Z"/>
      <ellipse class="cls-3" cx="278.43" cy="155.01" rx="23.96" ry="22.12" transform="translate(97.94 417.64) rotate(-84.61)"/>
      <ellipse class="cls-3" cx="285.16" cy="182.88" rx="21.74" ry="20.06" transform="translate(76.29 449.6) rotate(-84.61)"/>
      <path class="cls-1" d="M302.36,170.51s.9-19.35-8.55-29.97c-9.45-10.63-30.94-1.94-34.5,13.99-3.57,15.93,3.97,39.83,13.83,46,9.85,6.17,18.2.14,23.81-8.41,5.6-8.56,5.42-21.6,5.42-21.6Z"/>
      <g>
        <g>
          <path class="cls-4" d="M168.85,116.31s-7.48,18.11-9.32,23.27c-1.84,5.16-3.77,10.98-3.73,14.34.04,3.36,2.11,7.62,3.73,7.76,1.62.14,2.78-.94,3.01-3.21.23-2.27.13-3.22,1.28-4.46s4.72-3.72,5.18-3.93c.46-.21.8,1.51-.27,3.39-1.08,1.88-3.45,3.58-1.96,5.5,1.49,1.92,4.45-.32,6.03-1.94,1.59-1.61,3.21-4.35,3.87-7.15.66-2.79.34-8.68.34-8.68l13.22-12.48s-17.52-2.1-21.36-12.41Z"/>
          <path class="cls-5" d="M169.67,151.93s-.2,2.58,4.62,2.7"/>
          <path class="cls-5" d="M156.95,149.79s1.34,4.98,6.86,4.22"/>
          <path class="cls-5" d="M156.51,156.73s3.26,2.53,5.75-.21"/>
          <path class="cls-5" d="M163.29,131.89s-.44,9.92,13.7,9.32"/>
        </g>
        <path class="cls-3" d="M172.59,110.94s-3.52.06-3.74,5.37c-.22,5.31,4.03,13.49,12.18,14.85,8.15,1.36,13.23-3.52,14.71-7.52,1.49-4-17.58-15.86-23.16-12.7Z"/>
        <path class="cls-4" d="M181.75,96.5s-8.64,10.39-10.15,15.67c-1.51,5.29,2.27,14.97,11.84,16.17,9.58,1.2,15.28-6.78,15.28-6.78l-16.97-25.06Z"/>
        <path class="cls-3" d="M186.69,88.11s-6.17,5.22-6.6,13.69c-.43,8.47,7.37,18.24,17.55,17.3,10.18-.94-2.57-31.4-10.95-30.99Z"/>
      </g>
      <path class="cls-3" d="M190.95,94.39s-4.53,5.46-1.93,14.62c2.6,9.17,9.07,14.23,9.07,14.23,0,0,12.53,18.01,17.79,20.8,5.27,2.79,14.57,2.9,33.43-4.75s26.29-18.87,29.19-24.63-14.07-32.26-19.93-36.1c-5.86-3.85-13.52-5.1-19.06-4.49s-10.68,1.96-10.68,1.96l-37.88,18.37Z"/>
      <path class="cls-1" d="M187.59,91.38s-4.53,5.46-1.93,14.62c2.6,9.17,9.07,14.23,9.07,14.23,0,0,12.52,18.01,17.79,20.8,5.27,2.79,14.57,2.9,33.43-4.75,18.86-7.65,26.29-18.87,29.19-24.63s-14.07-32.26-19.93-36.1c-5.86-3.85-13.52-5.1-19.06-4.49-5.54.6-10.68,1.96-10.68,1.96l-37.88,18.37Z"/>
      <circle class="cls-3" cx="205.49" cy="73.28" r="28.49" transform="translate(78.71 250.83) rotate(-74.1)"/>
      <circle class="cls-6" cx="201.39" cy="65.86" r="32.17" transform="translate(24.96 183.2) rotate(-51.74)"/>
      <g>
        <path class="cls-2" d="M223.46,70.41c.33-.67.76-1.86.64-3.39-.2-2.42-2.91-6.87-4.04-8.08-1.13-1.21-2.86.22-2.86.22l-2-3.59c-4.82-8.66-15.75-11.78-24.41-6.96-8.66,4.82-11.78,15.75-6.96,24.41l4.14,7.45-2.32-3.76s-2.12.72-1.69,2.32c.43,1.6,2.79,6.25,4.74,7.69,1.38,1.02,2.76,1.23,3.46,1.26l5.47,9.83c2.36.28,4.78.3,7.24.04,10.83-1.18,19.81-7.6,24.7-16.46l-6.1-10.97Z"/>
        <path class="cls-1" d="M215.04,61.42c-3.64-6.54-11.9-8.9-18.44-5.26l-2.45,1.36c-6.54,3.64-8.9,11.9-5.26,18.44l12.27,22.06c1.22,0,2.46-.05,3.7-.18,9.61-1.04,17.76-6.23,22.89-13.57l-12.72-22.85Z"/>
        <path class="cls-11" d="M199.95,74.78c.46.83.43,1.73-.07,2s-1.28-.17-1.74-1c-.46-.83-.43-1.73.07-2s1.28.17,1.74,1Z"/>
        <path class="cls-11" d="M210.12,69.12c.46.83.43,1.73-.07,2-.5.28-1.28-.17-1.74-1-.46-.83-.43-1.73.07-2,.5-.28,1.28.17,1.74,1Z"/>
        <polyline class="cls-5" points="205.13 70.47 210.35 76.97 205.6 79.15"/>
        <path class="cls-11" d="M212.88,82.33c.46.82.16,1.86-.66,2.32s-1.86.16-2.32-.66-.16-1.86.66-2.32,1.86-.16,2.32.66Z"/>
        <path class="cls-5" d="M192.88,73.61s.76-3.18,4.96-3.45"/>
        <path class="cls-5" d="M204.4,66.28s1.11-3.37,5.55-2.4"/>
        <path class="cls-5" d="M207.38,93.08s3.55,1.01,6.04.54c2.49-.47,4.5-1.81,5.43-3.02.93-1.21,2.2-5.12,2.2-5.12"/>
      </g>
      <path class="cls-1" d="M177.72,84.45c-1.92-17.66,10.84-33.54,28.51-35.46,10.2-1.11,19.8,2.69,26.47,9.49-3.66-15.6-18.45-26.38-34.78-24.6-17.66,1.92-30.43,17.79-28.51,35.46.81,7.46,4.12,14.04,8.99,19.01-.3-1.27-.53-2.57-.68-3.91Z"/>
      <g>
        <ellipse class="cls-3" cx="252.7" cy="87.13" rx="14.48" ry="16.36" transform="translate(-7.93 27.8) rotate(-6.2)"/>
        <path class="cls-1" d="M286.04,74.2s-7.79-2.1-20.43-2.4c-12.64-.31-20.07.92-22.47,7.2-2.4,6.28-1.86,16.45,5.93,19.81,4.35,1.87,10.73.8,15.38-.27,4.65-1.07,16.04-5.81,19.62-11.52,3.58-5.71,3.65-10.2,1.97-12.82Z"/>
        <path class="cls-3" d="M299.27,83.83s-4.18-7.53-11.97-9.63-14.94,3.02-18.18,8c-3.24,4.98-1.8,6.64-1.8,6.64,0,0,11.43-5.72,17.33-6.79s14.62,1.77,14.62,1.77Z"/>
        <path class="cls-1" d="M267.03,93.91s-1.83-5.26,5.55-12.09c7.38-6.83,20.96-4.38,25.38.19,4.42,4.56,3.89,12.61.39,16.49-3.5,3.88-7.01,5.1-7.01,5.1,0,0-6.88-11.72-24.31-9.69Z"/>
        <path class="cls-1" d="M260.87,104.25s2.83-7.45,6.16-10.34c3.33-2.88,13.28-4.1,20.71-1.55,7.42,2.56,6.11,11.1,4.72,13.78s-5.64,4.82-5.64,4.82l-25.94-6.71Z"/>
        <g>
          <path class="cls-1" d="M261.71,103.03s-1.51.3-3.02,1.87c-1.51,1.57-1.99,2.32-5.02,4.05s-6.25,1.8-5.06,5.03c1.19,3.23,5.62,2.75,7.81,2.23,2.19-.52,3.08-1.32,4.76-2.62,1.68-1.3,2.95-10.27,3.04-10.7.09-.43-2.51.13-2.51.13Z"/>
          <path class="cls-1" d="M269.66,100.07s-4.46-1.06-6.65.72c-2.19,1.78-2.01,8.62-1.83,12.81.17,4.18,1.66,7.52,3.26,8.05,1.6.53,3.24.21,3.88-.42s-.03-6.72.41-11.67c.44-4.95.93-9.49.93-9.49Z"/>
          <path class="cls-1" d="M269.66,100.07s-2,4.84-2.58,9.81c-.58,4.97,2.11,11.68,3.15,12.27,1.04.59,3.97.41,4.65-1.07s.18-6.49.26-9.43c.08-2.94,1.49-9.26,1.28-11.19-.21-1.94-4.58-2.16-6.77-.39Z"/>
          <path class="cls-1" d="M276.42,100.46s2.66-1.27,4.6-.22c1.94,1.05,2.39,3.94,2.12,5.37-.26,1.43-1.16,9.93-1.78,11.96-.62,2.03-2.19,3.04-3.47,2.9-1.28-.14-2.15-1.73-2.34-3.53-.2-1.8-.41-5.29-.41-5.29l1.28-11.19Z"/>
          <path class="cls-1" d="M283.14,102.95s3.6.87,4.66,1.6c1.06.73,1.45,3.06.72,6.65-.73,3.58-1.77,5.66-3.43,5.84s-3.01-1.91-3.01-3.18c0-1.26,1.37-7.99,1.06-10.9Z"/>
        </g>
      </g>
      <path class="cls-3" d="M235.68,105.66c2.25,3.64,1.46,8.21-1.78,10.21-3.23,2-7.68.67-9.93-2.96-2.25-3.64-1.46-8.21,1.78-10.21s7.68-.67,9.93,2.96Z"/>
      <path class="cls-11" d="M217.95,117.9c1.58,2.55,1.02,5.75-1.25,7.15-2.27,1.4-5.38.47-6.96-2.08-1.58-2.55-1.02-5.75,1.25-7.15,2.27-1.4,5.38-.47,6.96,2.08Z"/>
      <path class="cls-6" d="M232.46,123.99c1.58,2.55,1.02,5.75-1.25,7.15-2.27,1.4-5.38.47-6.96-2.08-1.58-2.55-1.02-5.75,1.25-7.15,2.27-1.4,5.38-.47,6.96,2.08Z"/>
    </g>
  </g>
</svg>