<?xml version="1.0" encoding="utf-8"?>
<!-- Generator: Adobe Illustrator 28.1.0, SVG Export Plug-In . SVG Version: 6.00 Build 0)  -->
<svg version="1.1" id="Layer_1" xmlns="http://www.w3.org/2000/svg" xmlns:xlink="http://www.w3.org/1999/xlink" x="0px" y="0px"
	 viewBox="0 0 291.69 291.69" style="enable-background:new 0 0 291.69 291.69;" xml:space="preserve">
<style type="text/css">
	.st0{fill-rule:evenodd;clip-rule:evenodd;fill:url(#SVGID_1_);}
	.st1{fill-rule:evenodd;clip-rule:evenodd;fill:#FFFFFF;}
</style>
<g>
	<linearGradient id="SVGID_1_" gradientUnits="userSpaceOnUse" x1="145.8445" y1="0" x2="145.8445" y2="291.689">
		<stop  offset="0" style="stop-color:#00C13E"/>
		<stop  offset="1" style="stop-color:#008530"/>
	</linearGradient>
	<path class="st0" d="M243.5,291.69H48.19C21.68,291.69,0,270,0,243.5V48.19C0,21.68,21.68,0,48.19,0H243.5
		c26.5,0,48.19,21.68,48.19,48.19V243.5C291.69,270,270,291.69,243.5,291.69z"/>
	<g>
		<path class="st1" d="M245.29,143.29c0,53.5-43.71,96.88-97.63,96.88c-17.12,0-33.21-4.37-47.2-12.05L46.4,245.29l17.62-51.98
			c-8.89-14.6-14.01-31.73-14.01-50.03c0-53.51,43.71-96.89,97.64-96.89C201.58,46.4,245.29,89.78,245.29,143.29L245.29,143.29z
			 M147.66,61.83c-45.27,0-82.09,36.53-82.09,81.46c0,17.81,5.8,34.32,15.64,47.76l-10.25,30.25l31.54-10.02
			c12.96,8.5,28.49,13.47,45.17,13.47c45.26,0,82.08-36.54,82.08-81.45C229.74,98.37,192.91,61.83,147.66,61.83L147.66,61.83z
			 M196.96,165.6c-0.6-0.99-2.2-1.59-4.59-2.77c-2.4-1.19-14.17-6.94-16.36-7.72c-2.19-0.79-3.8-1.19-5.38,1.18
			c-1.6,2.38-6.18,7.73-7.59,9.31c-1.39,1.59-2.78,1.78-5.18,0.59c-2.4-1.18-10.11-3.7-19.25-11.78
			c-7.11-6.3-11.91-14.07-13.32-16.45c-1.39-2.37-0.14-3.66,1.05-4.84c1.08-1.07,2.4-2.77,3.59-4.15c1.2-1.39,1.6-2.39,2.4-3.97
			c0.8-1.59,0.4-2.97-0.2-4.15c-0.59-1.18-5.38-12.87-7.38-17.63c-1.98-4.75-3.98-4.57-5.38-4.57c-1.39,0-3.98,0.41-3.98,0.41
			s-4.8,0.59-6.99,2.97c-2.19,2.37-8.37,8.12-8.37,19.8c0,11.68,8.57,22.98,9.76,24.56c1.2,1.59,16.55,26.35,40.89,35.86
			c24.33,9.51,24.33,6.33,28.72,5.93c4.38-0.39,14.16-5.74,16.15-11.29C197.55,171.34,197.55,166.58,196.96,165.6L196.96,165.6z
			 M196.96,165.6"/>
	</g>
</g>
</svg>
