<?xml version="1.0" encoding="utf-8"?>
<!-- Generator: Adobe Illustrator 28.1.0, SVG Export Plug-In . SVG Version: 6.00 Build 0)  -->
<svg version="1.1" id="Layer_1" xmlns="http://www.w3.org/2000/svg" xmlns:xlink="http://www.w3.org/1999/xlink" x="0px" y="0px"
	 viewBox="0 0 361.37 299.11" style="enable-background:new 0 0 361.37 299.11;" xml:space="preserve">
<style type="text/css">
	.st0{display:none;}
	.st1{fill:url(#SVGID_1_);}
	.st2{opacity:0.52;fill:url(#SVGID_00000062178447371865404720000002626009611442196391_);}
	.st3{fill:url(#SVGID_00000132061088765357704640000012242663672887347867_);}
	.st4{fill:url(#SVGID_00000034778035807976979460000010700339046642809746_);}
	.st5{fill:url(#SVGID_00000070801654411856324570000006313766604386446753_);}
	.st6{opacity:0.52;fill:url(#SVGID_00000109007937010201823420000008688474846980445851_);}
	.st7{fill:url(#SVGID_00000003814327508572518750000007233785124322924726_);}
	.st8{fill:url(#SVGID_00000097465525603173293540000006178141750640964488_);}
	.st9{fill:url(#SVGID_00000003808709739411061560000001055615793962483079_);}
	.st10{fill:url(#SVGID_00000045612485921476776190000008776708049563916212_);}
	.st11{fill:url(#SVGID_00000143606612428603886080000012269671095634901133_);}
	.st12{fill:url(#SVGID_00000036220900564826846680000006603175740063368634_);}
	.st13{fill:#FFFFFF;}
</style>
<rect x="-292.4" y="-221.82" class="st0" width="935.17" height="935.17"/>
<g>
	<g>
		<linearGradient id="SVGID_1_" gradientUnits="userSpaceOnUse" x1="163.5865" y1="178.1797" x2="360.3726" y2="178.1797">
			<stop  offset="0" style="stop-color:#654BDC"/>
			<stop  offset="1" style="stop-color:#00DCFC"/>
		</linearGradient>
		<path class="st1" d="M163.59,298.14c0,0,62.93-41.28,77.12-136.71c14.19-95.44,63.47-120.3,101.88-92.53
			C390.31,103.39,345.69,290.41,163.59,298.14z"/>
		
			<linearGradient id="SVGID_00000150788056756617683370000003452301315660878769_" gradientUnits="userSpaceOnUse" x1="257.3568" y1="164.3167" x2="360.3704" y2="164.3167">
			<stop  offset="0" style="stop-color:#FFFFFF"/>
			<stop  offset="1" style="stop-color:#00DCFC"/>
		</linearGradient>
		<path style="opacity:0.52;fill:url(#SVGID_00000150788056756617683370000003452301315660878769_);" d="M342.59,68.9
			c-28.75-20.78-63.58-12.08-85.23,33.61c18.86,26.41,55.03,93.18,7.14,167.91C360.87,215.32,379.78,95.78,342.59,68.9z"/>
		
			<linearGradient id="SVGID_00000052826081705460771720000004762891991178229889_" gradientUnits="userSpaceOnUse" x1="240.6611" y1="256.7978" x2="336.0974" y2="103.3261">
			<stop  offset="0" style="stop-color:#654BDC"/>
			<stop  offset="1" style="stop-color:#00DCFC"/>
		</linearGradient>
		<path style="fill:url(#SVGID_00000052826081705460771720000004762891991178229889_);" d="M342.59,68.9
			c-12.29-8.88-25.68-12.35-38.69-9.88c8.67,3.12,36,16.6,31.92,61.46c-4.84,53.2-31.07,122.21-172.23,177.66
			C345.69,290.41,390.31,103.39,342.59,68.9z"/>
		
			<linearGradient id="SVGID_00000177457123764167764420000007058746328804509352_" gradientUnits="userSpaceOnUse" x1="163.5865" y1="187.4395" x2="274.2178" y2="187.4395">
			<stop  offset="0" style="stop-color:#654BDC"/>
			<stop  offset="1" style="stop-color:#FFFFFF"/>
		</linearGradient>
		<path style="fill:url(#SVGID_00000177457123764167764420000007058746328804509352_);" d="M249.73,140.79
			c9.03-44.49,24.48-64.05,24.48-64.05v0c-15.14,16.45-27.49,44.2-33.51,84.69c-14.19,95.44-77.12,136.71-77.12,136.71
			C231.56,258.81,240.71,185.29,249.73,140.79z"/>
		
			<linearGradient id="SVGID_00000008107055742967252510000015541490263908257695_" gradientUnits="userSpaceOnUse" x1="165.3237" y1="-69.6654" x2="362.1114" y2="-69.6654" gradientTransform="matrix(0.7641 -0.6451 0.6451 0.7641 -1.4242 359.943)">
			<stop  offset="0" style="stop-color:#FDB400"/>
			<stop  offset="1" style="stop-color:#FE4559"/>
		</linearGradient>
		<path style="fill:url(#SVGID_00000008107055742967252510000015541490263908257695_);" d="M157.34,291.72
			c0,0,21.46-72.14-29.26-154.21C77.35,55.44,98.97,4.65,146.24,1.08C204.95-3.34,291.51,168.34,157.34,291.72z"/>
		
			<linearGradient id="SVGID_00000170254495328280253400000007842842063214858120_" gradientUnits="userSpaceOnUse" x1="257.5471" y1="-99.6877" x2="360.3569" y2="-99.6877" gradientTransform="matrix(0.7598 -0.6501 0.6501 0.7598 12.0372 372.2389)">
			<stop  offset="0" style="stop-color:#FFFFFF"/>
			<stop  offset="1" style="stop-color:#FDB400"/>
		</linearGradient>
		<path style="opacity:0.52;fill:url(#SVGID_00000170254495328280253400000007842842063214858120_);" d="M145.73,1.25
			c-35.35,2.9-56.16,32.16-42.91,80.95c31.5,7.81,101.53,35.41,113.73,123.33C253.96,101.01,191.47-2.5,145.73,1.25z"/>
		
			<linearGradient id="SVGID_00000005253764189729033880000016018070023846261895_" gradientUnits="userSpaceOnUse" x1="242.4001" y1="8.9531" x2="337.8362" y2="-144.5182" gradientTransform="matrix(0.7641 -0.6451 0.6451 0.7641 -1.4242 359.943)">
			<stop  offset="0" style="stop-color:#FDB400"/>
			<stop  offset="1" style="stop-color:#FE4559"/>
		</linearGradient>
		<path style="fill:url(#SVGID_00000005253764189729033880000016018070023846261895_);" d="M146.24,1.08
			c-15.12,1.14-27.59,7.13-35.93,17.41c8.64-3.21,38.21-10.54,64.03,26.37c30.62,43.77,55.09,113.43-17,246.86
			C291.51,168.34,204.95-3.34,146.24,1.08z"/>
		
			<linearGradient id="SVGID_00000018956424911730138250000002912899179383442854_" gradientUnits="userSpaceOnUse" x1="165.3237" y1="-60.4058" x2="275.9571" y2="-60.4058" gradientTransform="matrix(0.7641 -0.6451 0.6451 0.7641 -1.4242 359.943)">
			<stop  offset="0" style="stop-color:#FDB400"/>
			<stop  offset="1" style="stop-color:#FFFFFF"/>
		</linearGradient>
		<path style="fill:url(#SVGID_00000018956424911730138250000002912899179383442854_);" d="M121.67,115.92
			C99.86,76.1,99.05,51.18,99.05,51.18l0,0c-0.96,22.34,7.5,51.51,29.02,86.33c50.73,82.07,29.26,154.21,29.26,154.21
			C183.91,217.82,143.47,155.74,121.67,115.92z"/>
		
			<linearGradient id="SVGID_00000021835961934260380660000001033121247945564312_" gradientUnits="userSpaceOnUse" x1="276.756" y1="-198.2235" x2="432.682" y2="-198.2235" gradientTransform="matrix(0.3013 -0.9535 0.9535 0.3013 163.1154 586.6954)">
			<stop  offset="0" style="stop-color:#B85DFA"/>
			<stop  offset="1" style="stop-color:#A208BA"/>
		</linearGradient>
		<path style="fill:url(#SVGID_00000021835961934260380660000001033121247945564312_);" d="M148.13,291.72
			c0,0-16.16-57.4-84.87-90.9s-75.73-76.67-45.58-99.07C55.12,73.94,185.76,152.3,148.13,291.72z"/>
		
			<linearGradient id="SVGID_00000068652456884801619770000002381969473020348828_" gradientUnits="userSpaceOnUse" x1="0.7206" y1="136.0088" x2="135.827" y2="136.0088">
			<stop  offset="0" style="stop-color:#B85DFA"/>
			<stop  offset="1" style="stop-color:#FFFFFF"/>
		</linearGradient>
		<path style="fill:url(#SVGID_00000068652456884801619770000002381969473020348828_);" d="M24.58,175.83
			c16.72-13.39,52.37-30.83,111.25-8.32C104.15,109.8,41.71,83.9,17.67,101.75C-5.35,118.85-6.66,148.06,24.58,175.83z"/>
		
			<linearGradient id="SVGID_00000158718491412578237780000017318471762060074413_" gradientUnits="userSpaceOnUse" x1="337.8288" y1="-135.9297" x2="413.4476" y2="-257.5328" gradientTransform="matrix(0.3013 -0.9535 0.9535 0.3013 163.1154 586.6954)">
			<stop  offset="0" style="stop-color:#B85DFA"/>
			<stop  offset="1" style="stop-color:#A208BA"/>
		</linearGradient>
		<path style="fill:url(#SVGID_00000158718491412578237780000017318471762060074413_);" d="M17.67,101.75
			c-9.64,7.16-15.46,16.46-16.7,26.87c4.43-5.8,21.13-23.23,54.05-9.44c39.04,16.36,84.91,52.65,93.1,172.54
			C185.76,152.3,55.12,73.94,17.67,101.75z"/>
		
			<linearGradient id="SVGID_00000063599516126187354680000011848642710770647720_" gradientUnits="userSpaceOnUse" x1="276.2834" y1="-190.9459" x2="363.9388" y2="-190.9459" gradientTransform="matrix(0.3032 -0.9529 0.9529 0.3032 162.5924 586.4302)">
			<stop  offset="0" style="stop-color:#A81DCA"/>
			<stop  offset="1" style="stop-color:#FFFFFF"/>
		</linearGradient>
		<path style="fill:url(#SVGID_00000063599516126187354680000011848642710770647720_);" d="M49.88,189.02
			C18.46,171.51,7.4,155.14,7.4,155.14h0c8.78,15.39,26.76,31.38,55.89,45.65c68.65,33.64,84.7,91.07,84.7,91.07
			C134.63,231.09,81.31,206.52,49.88,189.02z"/>
	</g>
</g>
</svg>
