<?xml version="1.0" encoding="UTF-8"?>
<svg id="Layer_1" data-name="Layer 1" xmlns="http://www.w3.org/2000/svg" xmlns:xlink="http://www.w3.org/1999/xlink" viewBox="0 0 361.37 299.11">
  <defs>
    <style>
      .cls-1 {
        fill: url(#linear-gradient-12);
      }

      .cls-1, .cls-2, .cls-3, .cls-4, .cls-5, .cls-6, .cls-7, .cls-8, .cls-9, .cls-10, .cls-11, .cls-12, .cls-13, .cls-14, .cls-15, .cls-16, .cls-17, .cls-18, .cls-19 {
        stroke-width: 0px;
      }

      .cls-20 {
        clip-path: url(#clippath-11);
      }

      .cls-2 {
        fill: url(#linear-gradient);
      }

      .cls-21 {
        stroke: #231916;
        stroke-miterlimit: 22.93;
        stroke-width: .57px;
      }

      .cls-21, .cls-7 {
        fill: none;
      }

      .cls-3 {
        fill: url(#linear-gradient-6);
      }

      .cls-22 {
        clip-path: url(#clippath-2);
      }

      .cls-23 {
        clip-path: url(#clippath-13);
      }

      .cls-4 {
        fill: url(#linear-gradient-15);
      }

      .cls-24 {
        clip-path: url(#clippath-6);
      }

      .cls-5 {
        fill: url(#linear-gradient-11);
      }

      .cls-6 {
        fill: url(#linear-gradient-5);
      }

      .cls-25 {
        clip-path: url(#clippath-7);
      }

      .cls-26 {
        clip-path: url(#clippath-1);
      }

      .cls-27 {
        clip-path: url(#clippath-4);
      }

      .cls-7 {
        clip-rule: evenodd;
      }

      .cls-8 {
        fill: url(#linear-gradient-13);
      }

      .cls-9 {
        fill: url(#linear-gradient-16);
      }

      .cls-28 {
        clip-path: url(#clippath-12);
      }

      .cls-10 {
        fill: url(#linear-gradient-14);
      }

      .cls-11 {
        fill: url(#linear-gradient-2);
      }

      .cls-12 {
        fill: url(#linear-gradient-7);
      }

      .cls-13 {
        fill: url(#linear-gradient-3);
      }

      .cls-29 {
        clip-path: url(#clippath-9);
      }

      .cls-30 {
        clip-path: url(#clippath);
      }

      .cls-14 {
        fill: url(#linear-gradient-9);
      }

      .cls-15 {
        fill: #990038;
      }

      .cls-15, .cls-17 {
        fill-rule: evenodd;
      }

      .cls-31 {
        clip-path: url(#clippath-3);
      }

      .cls-16 {
        fill: url(#linear-gradient-8);
      }

      .cls-32 {
        clip-path: url(#clippath-8);
      }

      .cls-33 {
        mask: url(#mask-1);
      }

      .cls-34 {
        mask: url(#mask);
      }

      .cls-35 {
        clip-path: url(#clippath-5);
      }

      .cls-17 {
        fill: #102770;
      }

      .cls-18 {
        fill: url(#linear-gradient-10);
      }

      .cls-36 {
        clip-path: url(#clippath-10);
      }

      .cls-19 {
        fill: url(#linear-gradient-4);
      }
    </style>
    <clipPath id="clippath">
      <path class="cls-7" d="M261.66,266.31c-55.22-12.8-84.87-39.89-96.91-77.1,16.94,2.32,24.6,6.13,32.01,7.49,13.91,34.09,42.14,57.06,64.9,69.61"/>
    </clipPath>
    <linearGradient id="linear-gradient" x1="-1632.19" y1="216.56" x2="-1728.89" y2="289.48" gradientTransform="translate(-1433.83) rotate(-180) scale(1 -1)" gradientUnits="userSpaceOnUse">
      <stop offset="0" stop-color="#00478f"/>
      <stop offset="1" stop-color="#29c4ff"/>
    </linearGradient>
    <clipPath id="clippath-1">
      <path class="cls-7" d="M238.95,289.14c-50.39-25.96-72.49-59.49-75.04-98.52,15.85,6.4,22.34,11.97,29.2,15.11,5.12,36.46,26.86,65.65,45.84,83.41"/>
    </clipPath>
    <linearGradient id="linear-gradient-2" x1="-1616.89" y1="215.37" x2="-1696.84" y2="322.08" xlink:href="#linear-gradient"/>
    <clipPath id="clippath-2">
      <path class="cls-7" d="M205.63,298.34c-34.81-32.17-45.13-64.13-38.46-96.15,11.34,8.7,15.33,14.64,20.15,18.7-4.02,30.53,6.98,58.9,18.3,77.45"/>
    </clipPath>
    <linearGradient id="linear-gradient-3" x1="-1607.79" y1="214.76" x2="-1631.36" y2="306.62" xlink:href="#linear-gradient"/>
    <clipPath id="clippath-3">
      <path class="cls-7" d="M328.74,101.41c-19.14-89.15-137.81,23.92-155.18,57.44,0,0-38.53,76.34,9.99,136.28-32.16-66.28,21.04-94.79,68.3-111.65,52.73-18.81,44.74-57.82,63.29-67.19,9.17-4.63,18.91,0,24.13,9.38,1.39-8.2.65-14.54-10.52-24.26"/>
    </clipPath>
    <linearGradient id="linear-gradient-4" x1="-1683.02" y1="29.33" x2="-1668.75" y2="185.58" gradientTransform="translate(-1433.83) rotate(-180) scale(1 -1)" gradientUnits="userSpaceOnUse">
      <stop offset="0" stop-color="#ffce4b"/>
      <stop offset="1" stop-color="#d3226f"/>
    </linearGradient>
    <linearGradient id="linear-gradient-5" x1="-3931.27" y1="470.72" x2="-4063.27" y2="298.77" gradientTransform="translate(-3716.05 -226.23) rotate(-180) scale(1 -1)" gradientUnits="userSpaceOnUse">
      <stop offset="0" stop-color="#fff"/>
      <stop offset="1" stop-color="#000"/>
    </linearGradient>
    <mask id="mask" x="169.64" y="100.92" width="169.61" height="184.94" maskUnits="userSpaceOnUse">
      <rect class="cls-6" x="169.64" y="100.92" width="169.61" height="184.94"/>
    </mask>
    <clipPath id="clippath-4">
      <path class="cls-7" d="M227.16,191.25c-11.44-28.26-8.69-49.68,3.96-66.49,4.22,8.17,7.5,15.14,9.19,18.82-7.57,19.39-12.72,39.02-13.15,47.67"/>
    </clipPath>
    <linearGradient id="linear-gradient-6" x1="-1662.59" y1="151.05" x2="-1656.51" y2="207.85" gradientTransform="translate(-1433.83) rotate(-180) scale(1 -1)" gradientUnits="userSpaceOnUse">
      <stop offset="0" stop-color="#00478f"/>
      <stop offset="1" stop-color="#51f4e9"/>
    </linearGradient>
    <clipPath id="clippath-5">
      <path class="cls-7" d="M205.4,195.48c-11.63-41.25-4.49-70.76,15.78-92.29,4.64,12.07,8.14,22.3,9.94,27.71-13.56,25.93-23.78,52.56-25.72,64.57"/>
    </clipPath>
    <linearGradient id="linear-gradient-7" x1="-1648.25" y1="135.25" x2="-1635.53" y2="225.94" xlink:href="#linear-gradient"/>
    <clipPath id="clippath-6">
      <path class="cls-7" d="M173.92,194.43c-6.18-46.99,6.33-78.16,31.94-98.51,3.16,13.94,6.68,23.21,7.79,29.42-18.96,26.22-35.7,56.25-39.73,69.09"/>
    </clipPath>
    <linearGradient id="linear-gradient-8" x1="-1645.66" y1="103.11" x2="-1600.16" y2="193.69" gradientTransform="translate(-1433.83) rotate(-180) scale(1 -1)" gradientUnits="userSpaceOnUse">
      <stop offset="0" stop-color="#003780"/>
      <stop offset="1" stop-color="#b222d3"/>
    </linearGradient>
    <clipPath id="clippath-7">
      <path class="cls-7" d="M149.34,193.01c-8.48-53.46,10.33-85.02,46.23-103.35,2.77,5.11,5.36,10.06,7.69,14.64-25.23,29.55-49.24,72.32-53.91,88.71"/>
    </clipPath>
    <linearGradient id="linear-gradient-9" x1="-1603.84" y1="142.7" x2="-1546.45" y2="181.01" gradientTransform="translate(-1433.83) rotate(-180) scale(1 -1)" gradientUnits="userSpaceOnUse">
      <stop offset="0" stop-color="#4e046d"/>
      <stop offset="1" stop-color="#ff8bc7"/>
    </linearGradient>
    <clipPath id="clippath-8">
      <path class="cls-7" d="M101.95,176.34c10.25-61.56,44.15-86.42,92.32-90.04,2.07,3.74,4.04,7.42,5.88,10.95-38.56,19.39-86.6,62.13-98.2,79.09"/>
    </clipPath>
    <linearGradient id="linear-gradient-10" x1="-1628.25" y1="92.39" x2="-1511.83" y2="196.89" xlink:href="#linear-gradient-9"/>
    <clipPath id="clippath-9">
      <path class="cls-7" d="M59.89,146.74c31.45-63.13,75.74-80.79,128.28-71.16,3.16,5.36,6.18,10.77,8.98,15.98-50.14,8.78-118.41,40.13-137.26,55.18"/>
    </clipPath>
    <linearGradient id="linear-gradient-11" x1="-1574.62" y1="100.1" x2="-1487.1" y2="144.68" gradientTransform="translate(-1433.83) rotate(-180) scale(1 -1)" gradientUnits="userSpaceOnUse">
      <stop offset="0" stop-color="#b91c58"/>
      <stop offset="1" stop-color="#f95c97"/>
    </linearGradient>
    <clipPath id="clippath-10">
      <path class="cls-7" d="M40.13,110.89c41.22-57.87,88.1-68.14,138.92-49.87,3.58,5.35,7.08,11.05,10.41,16.78-51.03-.53-127.65,20.76-149.33,33.09"/>
    </clipPath>
    <linearGradient id="linear-gradient-12" x1="-1597.6" y1="67.68" x2="-1454.19" y2="94.44" gradientTransform="translate(-1433.83) rotate(-180) scale(1 -1)" gradientUnits="userSpaceOnUse">
      <stop offset="0" stop-color="#b91c58"/>
      <stop offset="1" stop-color="#ff8bc7"/>
    </linearGradient>
    <clipPath id="clippath-11">
      <path class="cls-7" d="M48.5,70.23c41.68-42.31,81.72-44.23,121.24-22.01,3.75,4.66,7.52,10.01,11.2,15.67-41.11-8.99-112.14-1.25-132.44,6.35"/>
    </clipPath>
    <linearGradient id="linear-gradient-13" x1="-1489.39" y1="58.48" x2="-1587.71" y2="41.25" xlink:href="#linear-gradient-4"/>
    <clipPath id="clippath-12">
      <path class="cls-7" d="M208.73,117.1C181.38,70.69,149.92,10.54,66.88,2.24c84.67-11.72,134.37,49.2,171.43,91.96,26.49,30.57,46.53,51.87,68.25,30.73-7.21,12.03-10.74,31.88-32.27,47.17-30.07,2.11-46.85-23.23-65.56-54.99"/>
    </clipPath>
    <linearGradient id="linear-gradient-14" x1="-1660.8" y1="185" x2="-1600.51" y2="31.24" gradientTransform="translate(-1433.83) rotate(-180) scale(1 -1)" gradientUnits="userSpaceOnUse">
      <stop offset="0" stop-color="#00478f"/>
      <stop offset="1" stop-color="#c11fda"/>
    </linearGradient>
    <clipPath id="clippath-13">
      <path class="cls-7" d="M39.77,35.06C84.01,3.66,122.66,18.41,122.66,18.41c21.26,11.17,37.48,26.81,50.85,43.87-18.94-23.87-110.48-31.5-133.74-27.22"/>
    </clipPath>
    <linearGradient id="linear-gradient-15" x1="-1487.5" y1="38.2" x2="-1624.76" y2="24.64" xlink:href="#linear-gradient-4"/>
    <linearGradient id="linear-gradient-16" x1="-4168.29" y1="764.45" x2="-3940.69" y2="626.03" gradientTransform="translate(-3856.18 -597.88) rotate(-180) scale(1 -1)" xlink:href="#linear-gradient-5"/>
    <mask id="mask-1" x="66.88" y="2.23" width="229.53" height="169.99" maskUnits="userSpaceOnUse">
      <rect class="cls-9" x="66.88" y="2.23" width="229.53" height="169.99"/>
    </mask>
  </defs>
  <g class="cls-30">
    <rect class="cls-2" x="164.75" y="189.2" width="96.91" height="77.1"/>
  </g>
  <g class="cls-26">
    <rect class="cls-11" x="163.91" y="190.63" width="75.04" height="98.52"/>
  </g>
  <g class="cls-22">
    <rect class="cls-13" x="160.5" y="202.19" width="45.13" height="96.15"/>
  </g>
  <g class="cls-31">
    <rect class="cls-19" x="135.02" y="12.26" width="205.62" height="282.87"/>
  </g>
  <g class="cls-34">
    <path class="cls-15" d="M179.5,285.85c-23.03-59.71,27.35-86.33,72.34-102.38,52.73-18.81,44.74-57.82,63.29-67.19,9.17-4.63,18.91,0,24.13,9.38,0,0-18.76-60.65-95.42,7.93,0,0-106.44,47.68-64.34,152.25"/>
  </g>
  <path class="cls-21" d="M306.57,124.93C254.45,175.64,212.08-17.85,66.88,2.24c139.86,13.99,133.41,175.04,207.41,169.86"/>
  <g class="cls-27">
    <rect class="cls-3" x="215.72" y="124.76" width="24.59" height="66.49"/>
  </g>
  <g class="cls-35">
    <rect class="cls-12" x="193.77" y="103.19" width="37.35" height="92.29"/>
  </g>
  <g class="cls-24">
    <rect class="cls-16" x="167.74" y="95.92" width="45.91" height="98.51"/>
  </g>
  <g class="cls-25">
    <rect class="cls-14" x="140.86" y="89.65" width="62.39" height="103.35"/>
  </g>
  <g class="cls-32">
    <rect class="cls-18" x="101.95" y="86.29" width="98.2" height="90.04"/>
  </g>
  <g class="cls-29">
    <rect class="cls-5" x="59.89" y="65.95" width="137.26" height="80.79"/>
  </g>
  <g class="cls-36">
    <rect class="cls-1" x="40.13" y="42.75" width="149.33" height="68.14"/>
  </g>
  <g class="cls-20">
    <rect class="cls-8" x="48.5" y="26" width="132.44" height="44.23"/>
  </g>
  <g class="cls-28">
    <rect class="cls-10" x="66.88" y="-9.48" width="239.68" height="183.68"/>
  </g>
  <g class="cls-23">
    <rect class="cls-4" x="39.77" y="3.66" width="133.74" height="58.61"/>
  </g>
  <g class="cls-33">
    <path class="cls-17" d="M221.18,103.19c47.45,73.09,75.23,42.94,75.23,42.94-4.52,8.72-10.85,17.97-22.12,25.96-30.07,2.11-46.85-23.23-65.56-54.99C181.38,70.69,149.92,10.54,66.88,2.24c96.66-1.15,154.29,100.96,154.29,100.96"/>
  </g>
</svg>