<?xml version="1.0" encoding="UTF-8"?>
<svg id="Layer_1" data-name="Layer 1" xmlns="http://www.w3.org/2000/svg" viewBox="0 0 586.92 696.02">
  <defs>
    <style>
      .cls-1 {
        fill: #edca58;
      }

      .cls-1, .cls-2 {
        stroke-width: 0px;
      }

      .cls-2 {
        fill: #ef470c;
      }
    </style>
  </defs>
  <path class="cls-2" d="M53.4,232.7c-93.04,45.14-93.04,459.28,260.58,462.3,119.59,1.02,255.83-74.22,269.79-193.95,13.96-119.73-44.41-179.95-44.41-179.95,0,0-34.6,93.06-88.11,100.04,0,0,45.49-121.26-54.55-225.96S324.4,1,324.4,1c0,0-221.13,120.49-163.98,343.38,0,0-67.47-28.91-107.02-111.68Z"/>
  <path class="cls-1" d="M428.3,449.85c-30.02-146.75-135.91-76.6-109.28-282.28,0,0-176.02,94.49-125.36,299.59-34.03,3.68-80.93-30.35-98.28-57.8,0,0,12.28,197.19,212.5,197.19,93.24,0,131.54-102.33,120.42-156.69Z"/>
  <path class="cls-1" d="M523.15,468.31s-18.16,51.21-56.5,61.29c-33.74,8.88-28.75,51.39-28.75,51.39,0,0,43.82,12.7,64.77-7.17,35.8-33.96,20.47-105.51,20.47-105.51Z"/>
</svg>